<?xml version="1.0" standalone="no"?><!DOCTYPE svg PUBLIC "-//W3C//DTD SVG 20010904//EN" "http://www.w3.org/TR/2001/REC-SVG-20010904/DTD/svg10.dtd"><svg version="1.0" xmlns="http://www.w3.org/2000/svg" width="1093.000000pt" height="1280.000000pt" viewBox="0 0 1093.000000 1280.000000" preserveAspectRatio="xMidYMid meet"><metadata>Created by potrace 1.15, written by Peter Selinger 2001-2017</metadata><g transform="translate(0.000000,1280.000000) scale(0.100000,-0.100000)"fill="#000000" stroke="none"><path d="M3924 12786 c-68 -30 -76 -70 -43 -222 11 -53 18 -102 16 -109 -3 -7-61 -43 -129 -81 -563 -310 -977 -620 -1373 -1025 -220 -225 -377 -414 -549-659 -667 -948 -1026 -2179 -957 -3285 25 -400 70 -705 155 -1042 20 -78 36-147 36 -153 0 -6 -10 -8 -25 -4 -33 8 -110 -18 -226 -78 -107 -54 -145 -84-154 -121 -4 -14 12 -103 39 -216 25 -106 46 -208 46 -227 0 -34 -2 -35 -31-32 -18 2 -35 10 -39 18 -28 61 -39 77 -69 97 -18 12 -49 25 -68 29 -52 10-139 -13 -176 -46 -31 -27 -32 -32 -36 -120 -3 -100 12 -259 35 -348 20 -7876 -188 124 -242 l41 -45 -46 98 c-62 134 -101 255 -115 357 -12 89 -9 141 16228 26 94 54 59 69 -88 3 -35 19 -127 35 -205 67 -332 84 -375 144 -375 72 0136 71 136 151 0 25 5 50 12 57 16 16 90 15 110 0 10 -8 95 -288 228 -758 117-410 319 -1118 450 -1575 216 -754 277 -968 294 -1047 7 -30 9 -29 -197 -62-53 -9 -123 -27 -155 -40 -31 -13 -100 -29 -152 -36 -166 -22 -147 -25 139-25 154 0 283 -3 287 -7 14 -15 -5 -21 -98 -33 l-93 -11 78 -12 c43 -7 123-12 178 -12 72 0 100 -3 97 -12 -6 -18 -80 -35 -211 -48 -67 -6 -138 -15 -157-20 -30 -7 -25 -8 35 -10 39 -1 129 -5 200 -9 l130 -6 -160 -23 c-88 -13 -167-26 -175 -30 -8 -3 53 -9 135 -13 163 -7 246 -22 226 -42 -7 -7 -57 -14 -119-17 -115 -6 -113 -8 52 -38 60 -11 113 -25 119 -31 6 -6 14 -48 18 -92 4 -4512 -86 17 -91 5 -5 28 -12 50 -15 32 -4 42 -10 44 -27 2 -15 12 -22 38 -27 19-3 69 -22 110 -42 41 -19 87 -39 103 -42 44 -11 39 -19 -26 -45 l-62 -25 35-5 35 -6 -40 -6 c-22 -4 -105 -10 -185 -14 -230 -11 -214 -20 45 -26 230 -6318 -16 269 -32 -30 -9 -253 -25 -369 -27 -55 0 -120 -4 -145 -8 -27 -4 84-10 275 -13 334 -7 378 -12 427 -53 14 -12 57 -30 95 -40 82 -22 92 -29 62-46 -22 -12 -14 -14 78 -25 116 -13 163 -28 163 -54 0 -14 11 -20 53 -25 123-16 632 -142 742 -184 28 -11 97 -24 155 -31 58 -6 222 -29 365 -50 266 -40555 -76 865 -107 138 -14 264 -17 600 -17 580 0 1027 30 1520 99 297 42 32447 355 59 17 7 46 11 66 8 62 -7 269 64 803 276 l269 106 17 41 c10 23 28 4643 52 18 8 29 25 37 52 5 21 17 42 25 45 28 10 15 632 -16 786 -21 100 -51138 -159 194 -168 88 -628 246 -947 325 -829 206 -2308 272 -3693 165 -307-23 -412 -39 -783 -115 l-348 -71 -25 23 c-32 30 -95 154 -324 644 -553 1178-905 1954 -898 1976 2 5 71 -77 153 -183 292 -375 504 -597 815 -857 737 -6151715 -1042 2625 -1146 604 -69 1200 -53 1675 44 279 57 570 135 749 200 47 1792 31 101 31 20 0 70 -53 148 -156 81 -108 99 -119 160 -102 l47 14 0 74 c041 -4 127 -9 191 l-9 116 119 63 c276 146 566 322 753 455 128 91 151 113 151139 0 27 -35 85 -57 93 -27 10 -60 -7 -304 -164 -129 -83 -277 -176 -329 -207-102 -61 -390 -210 -395 -204 -12 12 -45 119 -45 146 0 44 22 63 149 126 381192 777 486 1170 871 272 267 427 452 657 790 148 216 217 328 247 400 14 3359 130 100 215 203 425 324 828 412 1371 62 391 70 906 19 1319 -73 591 -3021274 -604 1799 -385 669 -924 1243 -1565 1666 -632 417 -1374 684 -2100 757-276 27 -995 14 -1250 -23 -185 -28 -566 -125 -817 -209 -98 -33 -184 -60-192 -60 -18 0 -62 56 -71 90 -10 43 27 77 151 136 150 72 178 109 138 186-15 30 -18 30 -67 25 -29 -4 -106 -26 -172 -51 l-120 -44 -95 98 c-122 126-139 135 -206 106z m134 -121 c88 -90 90 -108 20 -145 -45 -23 -50 -24 -75-10 -31 18 -50 63 -59 145 -13 109 14 112 114 10z m467 -65 c0 -21 -85 -69-222 -125 -137 -55 -551 -262 -733 -366 -564 -321 -1102 -804 -1529 -1374-510 -680 -827 -1419 -965 -2250 -52 -308 -67 -500 -66 -853 0 -567 78 -1053254 -1587 422 -1275 1354 -2364 2526 -2950 476 -238 1016 -402 1580 -480 459-63 1034 -62 1485 5 304 45 646 130 913 226 409 148 936 424 1235 645 45 34101 71 125 82 40 20 43 20 59 4 14 -13 15 -22 7 -35 -46 -75 -596 -411 -912-557 -503 -233 -1084 -402 -1579 -460 -448 -53 -1048 -38 -1488 36 -1087 183-2112 724 -2824 1489 -735 790 -1210 1738 -1381 2752 -57 339 -65 449 -65 8630 389 6 482 46 755 168 1124 706 2159 1555 2991 458 449 965 790 1559 1048370 162 420 178 420 141z m1693 -150 c140 -16 135 -29 -23 -60 -60 -12 -131-31 -158 -42 -59 -25 -104 -76 -112 -125 -14 -82 -36 -140 -75 -197 -22 -32-40 -69 -40 -82 0 -31 26 -54 61 -54 34 0 69 -16 69 -30 0 -15 -61 -50 -86-50 -12 0 -104 55 -205 123 -211 141 -361 220 -504 267 -55 18 -104 36 -10840 -11 9 76 86 127 112 87 45 351 91 571 101 168 7 407 6 483 -3z m330 -50c17 -11 32 -27 32 -35 0 -21 -11 -19 -50 8 -61 41 -46 66 18 27z m435 -71c154 -95 286 -189 345 -247 30 -29 84 -72 121 -95 123 -80 391 -322 391 -3540 -23 -54 -14 -103 17 -26 16 -102 83 -170 147 -195 188 -441 387 -671 544-90 61 -112 90 -50 64 21 -9 83 -43 137 -76z m-529 28 c73 -41 76 -87 7 -87-48 0 -83 14 -133 53 -44 33 -46 40 -15 55 30 15 93 6 141 -21z m479 -93 c62-42 148 -104 192 -139 131 -103 399 -349 470 -431 62 -74 75 -94 57 -94 -12 0-121 92 -282 240 -79 73 -214 186 -300 250 -185 141 -350 278 -350 291 0 1591 -35 213 -117z m-2681 36 c32 -64 35 -91 11 -112 -20 -17 -125 -58 -148 -58-19 0 -65 91 -65 128 0 48 81 104 145 99 26 -2 34 -10 57 -57z m711 -60 c-82-80 -121 -109 -111 -81 3 11 190 171 198 171 3 0 -36 -41 -87 -90z m1720 69c153 -78 497 -350 497 -392 0 -26 -27 -31 -58 -12 -67 43 -502 400 -502 412 018 14 16 63 -8z m-1794 -45 c-102 -106 -307 -230 -531 -323 -153 -64 -241 -90-386 -116 -96 -16 -212 -20 -212 -6 0 23 365 211 411 211 14 0 31 -6 38 -1210 -10 15 -10 18 -1 24 65 135 118 498 238 165 55 197 64 204 58 3 -2 -15 -24-40 -49z m1181 24 c1 -30 31 -96 70 -154 18 -25 29 -48 26 -51 -11 -11 -10740 -132 70 -57 68 -54 157 6 157 24 0 30 -4 30 -22z m203 6 c137 -71 163 -14234 -94 -61 23 -133 82 -122 100 9 15 52 12 88 -6z m941 -26 c125 -73 228 -150218 -160 -13 -13 -77 22 -174 95 -152 116 -167 138 -44 65z m208 5 c65 -29114 -74 105 -97 -4 -9 -15 -16 -25 -16 -19 0 -128 73 -187 125 l-30 26 40 -6c22 -4 65 -18 97 -32z m-781 -44 c153 -105 295 -229 640 -556 124 -118 247-239 273 -269 42 -48 51 -74 26 -74 -13 0 -103 78 -290 250 -202 186 -370 326-588 490 -92 69 -173 138 -182 153 -14 26 -14 29 4 43 29 21 36 19 117 -37zm-2657 9 c24 -38 52 -151 39 -155 -54 -18 -571 -334 -707 -431 -278 -200 -742-645 -980 -942 -468 -581 -842 -1361 -976 -2030 -66 -332 -90 -589 -90 -969 0-814 175 -1563 527 -2255 538 -1057 1442 -1887 2504 -2302 280 -109 682 -222954 -268 313 -52 518 -70 825 -70 504 -1 926 63 1450 219 80 23 180 51 224 6076 17 79 17 90 -1 34 -59 46 -133 24 -152 -43 -35 -457 -159 -722 -216 -141-31 -374 -70 -521 -88 -173 -21 -893 -17 -1105 5 -391 42 -625 90 -945 194-566 184 -1188 510 -1595 835 -407 326 -935 931 -1196 1371 -271 456 -5151104 -628 1668 -67 333 -90 582 -91 959 0 389 25 645 100 1015 248 1226 10012380 2040 3127 209 150 704 443 757 447 4 1 14 -9 22 -21z m1141 -54 c232 -93675 -374 651 -413 -4 -6 -51 -41 -104 -76 -53 -36 -91 -65 -84 -65 15 0 10645 182 90 l52 31 106 -98 c201 -185 332 -316 332 -334 0 -10 -15 -29 -32 -42-69 -52 -673 -357 -706 -357 -13 0 -50 -21 -92 -53 l-25 -19 46 7 c43 6 47 575 -28 16 -18 46 -62 67 -96 58 -96 56 -65 -3 46 -62 115 -76 94 128 192 7636 219 110 318 163 98 53 203 106 232 117 l53 21 30 -20 c76 -55 459 -489 459-521 0 -12 -42 -43 -132 -97 -209 -125 -170 -131 64 -10 l121 62 44 -49 c115-131 443 -568 443 -592 0 -19 -44 -45 -306 -184 -272 -143 -368 -198 -360-207 10 -9 126 38 376 153 135 62 269 123 299 136 l54 23 17 -21 c9 -12 42-66 73 -120 42 -74 59 -115 68 -167 16 -96 7 -230 -20 -290 -28 -64 -27 -94 6-160 24 -50 25 -57 13 -83 -8 -15 -16 -32 -18 -37 -3 -5 7 -6 22 -2 65 16 154-124 220 -352 67 -227 128 -324 241 -384 l67 -35 -81 -62 c-44 -34 -81 -64-81 -66 0 -2 60 25 133 60 88 44 144 65 168 65 27 0 41 6 52 23 14 19 18 2026 7 7 -10 28 -15 65 -15 54 -1 56 -2 124 -68 82 -78 131 -102 248 -118 158-22 246 9 467 164 59 42 123 81 143 87 32 11 38 10 60 -11 16 -15 35 -57 54-119 50 -164 58 -139 -72 -223 -421 -273 -704 -437 -753 -437 -20 0 -31 24-125 275 -83 221 -108 280 -116 273 -2 -3 30 -105 71 -229 89 -264 108 -334101 -364 -8 -33 -286 -185 -706 -385 -342 -163 -490 -225 -509 -213 -43 27-271 701 -271 801 0 28 -3 32 -26 32 -14 0 -46 -15 -72 -32 l-47 -33 39 -5c26 -3 45 -13 58 -30 20 -27 193 -502 233 -640 38 -128 36 -134 -36 -170 -217-110 -810 -347 -1044 -418 -194 -59 -265 -64 -311 -21 -29 27 -38 21 -24 -158 -21 7 -28 -5 -32 -31 -12 -87 9 -271 100 -104 51 -207 99 -229 107 -48 16-191 17 -436 5 l-176 -9 -56 26 c-68 31 -157 91 -261 175 -61 49 -83 62 -10057 -11 -4 -70 -11 -131 -16 -162 -13 -173 -15 -210 -48 -26 -22 -48 -31 -92-37 -61 -7 -429 2 -475 12 -22 5 -31 17 -47 58 -33 89 -94 348 -95 406 l-1 5575 8 c129 13 155 17 170 28 11 8 12 12 3 16 -23 9 -14 20 12 15 63 -12 33 81-42 128 -53 34 -78 36 -160 15 -75 -20 -80 -19 -107 8 -17 17 -33 66 -66 202-24 99 -45 172 -48 163 -2 -9 6 -81 17 -158 12 -78 21 -160 21 -182 0 -40 0-40 -32 -35 -18 2 -64 12 -103 21 -81 18 -341 22 -426 6 -91 -17 -127 -76 -73-119 36 -28 110 -48 254 -66 69 -9 150 -26 180 -38 42 -16 78 -21 149 -22 820 95 -2 106 -20 16 -24 108 -335 125 -420 24 -118 -5 -207 -108 -337 -66 -83-104 -108 -199 -133 -88 -23 -145 -20 -177 10 -30 28 -32 38 -11 59 21 20 1923 -15 31 -69 15 -132 140 -155 306 l-6 46 -120 6 c-66 4 -129 12 -139 17 -2815 -35 51 -34 180 1 90 6 128 23 174 11 33 21 68 21 79 0 19 -66 117 -79 117-4 0 -24 -32 -45 -70 -20 -39 -41 -70 -46 -70 -5 0 -15 12 -22 28 -32 66 -48-5 -24 -107 10 -43 12 -70 5 -82 -10 -20 -116 -73 -165 -83 -62 -13 -115 33-130 113 -6 31 -3 38 30 65 20 17 36 34 36 37 0 4 -15 10 -33 13 -86 16 -11294 -105 310 6 158 7 167 73 329 38 94 96 129 158 95 31 -16 44 -37 51 -82 7-38 7 -39 21 -18 9 11 28 22 43 24 20 2 32 13 48 43 15 30 27 40 47 42 15 139 11 54 22 14 12 34 21 44 21 31 0 150 -174 173 -252 6 -21 55 -24 87 -7 1910 20 17 13 187 -9 247 3 292 121 442 108 137 133 206 146 418 10 175 16 19289 253 28 24 61 60 72 81 13 22 63 70 123 117 55 43 107 86 114 95 9 10 15 4315 84 1 63 2 67 26 70 13 2 37 15 53 28 15 13 65 35 110 49 105 32 121 43 158118 17 34 42 76 55 94 34 45 30 49 -13 14 -39 -32 -53 -32 -53 1 0 62 72 76138 27 l42 -31 15 36 c19 45 19 56 -2 86 -10 13 -26 43 -35 65 -15 35 -17 37-17 14 -1 -40 -35 -75 -85 -88 -146 -36 -139 5 32 182 145 150 221 249 267349 19 42 35 80 35 83 0 4 -19 -7 -41 -24 l-42 -30 -44 39 c-37 32 -115 70-144 70 -21 0 -31 -55 -39 -219 -8 -177 -17 -221 -45 -221 -22 0 -28 19 -2677 1 31 -2 53 -8 53 -13 0 -17 -20 -30 -134 -6 -60 -15 -97 -28 -114 -44 -58-50 -21 -33 193 20 261 53 367 89 288 10 -22 14 -24 22 -12 5 7 9 29 9 48 026 9 41 40 70 22 20 40 40 40 45 0 4 -17 6 -37 4 l-38 -3 1 55 c2 96 50 15576 93 11 -27 12 -24 24 42 6 40 12 57 13 40 4 -75 31 -189 49 -208 25 -24 47-18 111 33 67 53 91 106 91 201 0 45 -5 81 -12 91 -14 17 -157 44 -182 35 -8-3 -16 -18 -18 -34 -2 -17 -9 -28 -18 -28 -15 0 -34 47 -47 120 -6 36 -8 32-14 -40 -7 -87 -13 -111 -34 -119 -7 -2 -16 -18 -20 -35 -3 -17 -18 -38 -34-48 -48 -31 -161 -168 -161 -194 0 -18 37 -8 58 14 12 13 33 46 46 73 l24 497 -80 c9 -98 -4 -130 -52 -130 -17 0 -34 -3 -38 -6 -3 -4 -10 -67 -15 -140 -5-74 -15 -148 -22 -164 -12 -27 -13 -14 -18 122 -3 83 -8 154 -11 158 -18 18-38 -219 -49 -580 -9 -324 -14 -369 -34 -362 -25 8 -16 491 16 819 6 64 8 1244 134 -12 31 -34 -5 -51 -84 -20 -98 -34 -121 -112 -189 -142 -122 -193 -178-193 -209 0 -31 -49 -135 -78 -167 -16 -18 -17 -18 -24 5 -3 12 -5 82 -3 1533 74 1 113 -3 90 -10 -53 -19 -65 -47 -65 -34 0 -199 63 -246 94 -34 23 -3931 -39 64 1 77 70 182 121 182 26 0 32 6 50 48 11 26 28 55 37 65 23 25 13389 140 82 4 -3 8 -52 11 -108 l4 -102 14 80 c17 99 47 164 107 234 56 65 78104 70 126 -5 12 -2 16 11 13 15 -2 21 8 32 52 8 30 29 75 47 100 46 62 62 9770 150 8 50 21 70 45 70 9 0 35 18 56 41 22 22 61 51 86 64 60 31 193 69 21461 9 -3 26 -27 38 -53 l21 -48 8 63 c9 79 28 112 67 112 43 0 91 -39 129 -10324 -41 44 -63 67 -73 18 -7 47 -31 65 -54 17 -22 39 -40 47 -40 21 0 79 -45100 -76 12 -19 13 -28 4 -37 -20 -20 -12 -27 29 -27 30 0 43 -5 55 -23 8 -1340 -119 70 -236 30 -117 60 -222 67 -234 27 -50 18 19 -31 220 -28 115 -51224 -51 244 0 46 28 82 80 103 22 9 40 17 40 19 0 2 -25 2 -57 -1 -46 -4 -59-2 -70 14 -18 25 -17 31 10 38 12 3 46 26 75 51 30 25 60 45 69 45 20 0 201183 241 244 42 65 41 97 -2 136 -55 50 -160 280 -128 280 22 0 86 -87 133-182 27 -56 52 -104 54 -106 2 -2 20 6 39 18 l36 21 26 -28 c67 -70 153 -226154 -275 0 -21 5 -28 20 -28 30 0 68 21 85 47 15 23 15 23 -8 18 -31 -8 -10161 -164 162 -63 102 -87 168 -74 205 8 22 7 38 -3 61 -17 42 -33 54 -85 66-60 13 -94 48 -115 119 -6 18 -4 22 14 22 30 0 68 22 131 74 30 25 55 46 5646 2 0 55 -21 118 -46z m2638 -20 c92 -46 223 -133 261 -173 22 -23 27 -34 19-42 -20 -20 -124 41 -296 176 -109 86 -104 99 16 39z m-1270 -5 c140 -72 475-324 455 -344 -2 -3 -54 28 -114 68 -60 41 -163 106 -229 145 -66 40 -135 85-153 101 -56 52 -34 68 41 30z m1190 -55 c86 -56 223 -168 238 -195 11 -21 5-39 -13 -39 -28 0 -358 247 -358 267 0 28 62 12 133 -33z m-1215 -74 c98 -49214 -111 259 -138 80 -48 177 -121 170 -128 -2 -3 -38 12 -80 31 -42 19 -8535 -96 35 -43 0 -338 177 -431 258 -61 54 -11 37 178 -58z m-422 51 c17 -1052 -35 78 -55 26 -20 53 -36 60 -36 40 0 586 -477 586 -511 0 -6 -7 -12 -17-16 -11 -4 -27 6 -52 34 -20 22 -47 44 -61 50 -33 14 -141 100 -310 248 -158138 -218 183 -286 218 -58 29 -79 50 -70 72 7 20 35 19 72 -4z m1511 -39 c91-64 228 -168 276 -210 39 -36 48 -66 22 -76 -30 -11 -385 283 -385 320 0 2212 17 87 -34z m-1599 -26 c35 -18 76 -62 65 -69 -11 -7 -110 15 -137 30 -1710 -17 11 5 32 27 25 32 25 67 7z m455 -85 c43 -25 94 -61 113 -81 129 -133236 -250 227 -250 -19 0 -209 152 -370 298 -119 107 -111 116 30 33z m-1716-111 c83 -178 113 -280 82 -280 -6 0 -25 33 -44 73 -33 72 -105 286 -105 3091 22 30 -23 67 -102z m1513 16 c100 -76 237 -201 229 -210 -3 -3 -64 41 -13598 -198 160 -269 244 -94 112z m-1692 34 c26 -28 106 -289 114 -369 5 -53 -19-50 -43 5 -30 71 -109 331 -109 359 0 30 13 32 38 5z m2770 -32 c79 -59 418-373 433 -399 6 -12 4 -21 -7 -30 -20 -17 -57 3 -156 83 -189 154 -389 362-373 388 12 19 33 10 103 -42z m-1188 -17 c42 -21 65 -63 82 -151 15 -76 26-84 175 -136 96 -33 133 -56 133 -80 0 -19 -61 -63 -118 -84 l-49 -19 -64 53c-78 64 -293 267 -339 319 l-33 38 23 24 c34 36 101 67 130 60 14 -4 41 -1460 -24z m2129 10 c82 -25 172 -81 309 -190 182 -144 210 -161 273 -166 114 -8216 -61 332 -174 79 -75 97 -105 97 -157 l0 -36 35 31 c39 34 53 37 77 19 25-20 312 -391 379 -491 69 -104 78 -130 54 -157 -39 -43 -46 -35 -274 307 -99150 -185 274 -190 277 -5 3 -24 -18 -44 -48 -40 -60 -106 -118 -160 -141 -60-25 -70 -21 -62 25 l7 40 -56 -30 c-55 -28 -57 -29 -104 -14 -26 8 -108 33-182 55 -155 47 -221 77 -267 122 -38 36 -40 53 -13 124 11 28 21 67 23 85 318 10 45 17 59 10 22 9 32 -4 58 -19 36 -108 105 -205 158 -228 125 -291 172-291 216 0 14 8 31 18 36 29 18 165 13 231 -8z m-4010 -18 c5 -10 12 -52 16-93 7 -86 29 -232 46 -308 11 -53 29 -71 29 -29 0 28 15 53 24 39 3 -6 14 -5623 -111 13 -77 15 -103 6 -112 -12 -12 -12 -12 -28 64 -3 16 -17 29 -43 39-64 25 -92 118 -108 350 -9 144 6 215 35 161z m240 -74 c58 -152 90 -319 60-319 -15 0 -34 52 -68 193 -56 230 -52 285 8 126z m-316 -96 c15 -202 -6 -303-32 -159 -12 64 -15 256 -5 294 14 49 27 -1 37 -135z m263 -13 c13 -58 26-134 29 -170 l5 -65 -16 35 c-23 49 -63 232 -69 310 l-5 65 16 -35 c9 -19 27-82 40 -140z m-416 113 c0 -66 -9 -95 -29 -91 -22 4 -26 57 -7 102 21 50 3645 36 -11z m74 31 c3 -9 6 -65 6 -126 0 -83 -3 -109 -12 -106 -32 11 -51 163-28 222 11 29 25 34 34 10z m-148 -54 c-4 -26 -15 -72 -25 -101 -15 -42 -20-50 -26 -36 -12 29 1 145 19 172 25 37 39 21 32 -35z m-71 40 c9 -14 -42 -249-60 -277 -32 -48 -61 -15 -65 72 l-1 40 -20 -50 c-22 -55 -52 -91 -67 -81 -53 -13 25 -16 48 l-8 43 -23 -45 c-29 -57 -61 -88 -76 -73 -13 13 16 138 49213 38 89 97 135 120 94 8 -15 11 -15 31 5 16 16 33 21 75 21 30 0 58 -4 61-10z m2962 -46 c162 -122 528 -533 675 -759 58 -90 117 -219 105 -232 -11 -11-49 30 -68 74 -10 23 -34 65 -53 93 -21 30 -36 64 -36 80 0 20 -6 31 -20 35-11 4 -72 58 -136 121 -82 81 -122 114 -139 114 -39 0 -74 21 -96 57 -32 51-16 51 42 0 29 -26 55 -44 57 -42 8 7 -62 87 -245 284 -95 102 -173 191 -173198 0 24 38 14 87 -23z m-503 -45 c27 -21 35 -49 14 -49 -23 0 -78 39 -78 550 21 33 19 64 -6z m2414 4 c42 -26 72 -55 72 -70 0 -20 -47 7 -89 51 -37 38-29 47 17 19z m-5228 -65 c0 -76 -55 -219 -111 -289 -52 -66 -62 -46 -33 6529 111 105 256 136 256 4 0 8 -15 8 -32z m3686 -126 c96 -97 234 -253 282-321 32 -44 40 -71 23 -71 -6 0 -99 98 -208 218 -223 244 -273 302 -273 314 018 92 -56 176 -140z m882 86 c42 -34 99 -98 87 -98 -4 0 -35 25 -68 55 -34 30-65 55 -69 55 -4 0 -3 -12 3 -26 15 -40 2 -42 -34 -6 -27 27 -30 34 -17 42 2717 57 11 98 -22z m-1213 -39 c20 -18 40 -40 46 -51 10 -18 9 -19 -18 -4 -3117 -61 42 -82 69 -24 31 14 21 54 -14z m555 -161 c83 -82 120 -132 107 -144-12 -12 -88 59 -197 183 -61 69 -110 130 -110 135 0 13 93 -68 200 -174zm-4050 154 c0 -29 -76 -298 -115 -407 -19 -55 -46 -116 -60 -137 -13 -20 -30-57 -36 -82 -8 -34 -16 -46 -30 -46 -24 0 -24 25 -4 115 21 91 13 105 -14 25-29 -87 -61 -142 -91 -157 -35 -17 -118 -38 -124 -32 -6 6 57 221 101 349 3395 78 182 110 212 l26 23 -7 -50 c-4 -27 -9 -66 -12 -85 l-4 -35 21 45 c12 2530 70 40 100 22 61 62 108 128 151 52 34 71 36 71 11z m4508 -9 c80 -31 165-78 184 -100 11 -14 4 -24 -52 -76 -36 -33 -52 -52 -36 -42 126 77 147 82 20250 59 -35 77 -79 79 -190 1 -99 12 -130 49 -139 31 -8 52 0 97 36 20 15 38 2840 28 2 0 4 -19 4 -42 0 -40 3 -43 65 -88 86 -61 130 -117 335 -425 254 -382457 -725 635 -1070 116 -225 137 -279 120 -300 -39 -47 -82 6 -234 282 -249452 -316 562 -339 563 -5 0 -1 -10 7 -22 29 -41 15 -88 -26 -88 -17 0 -226305 -404 590 -29 47 -78 111 -108 143 -101 108 -189 257 -166 281 14 14 57-19 159 -123 100 -103 100 -100 3 36 -35 48 -66 100 -69 116 -12 61 -60 49-242 -58 -79 -47 -146 -85 -150 -84 -9 1 -203 224 -272 314 -57 75 -109 162-109 184 0 5 27 36 60 69 59 58 60 60 60 114 0 80 6 82 108 41z m456 -62 c19-21 34 -91 19 -91 -22 0 -89 91 -76 104 12 12 40 6 57 -13z m-1689 -81 c101-77 130 -88 104 -39 -29 56 87 80 172 36 67 -35 98 -93 109 -202 6 -58 15 -9426 -106 34 -38 -10 -179 -82 -258 -61 -68 -69 -70 -121 -19 -100 96 -356 400-426 503 l-28 40 28 23 c32 26 121 72 139 72 7 0 43 -22 79 -50z m1737 -127c20 -18 23 -43 9 -58 -6 -6 -11 -32 -13 -60 -3 -45 -5 -50 -27 -50 -30 0 -4640 -37 91 5 26 12 34 28 34 17 0 20 4 15 30 -7 34 -2 37 25 13z m-5425 -86c-8 -61 -70 -264 -99 -321 -19 -37 -21 -38 -59 -33 -36 5 -41 3 -50 -20 -18-47 -13 -55 34 -52 l42 3 -1 -46 c-1 -92 -136 -310 -214 -344 -35 -15 -40 -23-50 -66 -14 -66 -13 -98 3 -93 17 7 32 -5 51 -42 9 -18 26 -35 39 -37 12 -245 -8 72 -13 49 -8 50 -9 47 -41 -3 -30 -2 -32 20 -27 31 8 72 -24 99 -77 19-38 20 -47 10 -191 -6 -84 -13 -240 -16 -347 -3 -107 -13 -276 -21 -375 -14-145 -14 -197 -5 -272 15 -122 14 -169 -4 -231 -17 -57 -53 -105 -96 -127 -36-19 -30 -40 -70 275 -17 135 -31 246 -32 247 -1 1 -3 -152 -4 -339 -1 -322 -6-378 -30 -355 -14 15 -23 121 -29 367 -5 212 -2 328 20 686 28 471 28 459 22453 -6 -6 -21 -99 -46 -294 -21 -163 -35 -225 -50 -225 -16 0 -22 65 -17 184l6 121 -18 -105 c-32 -182 -51 -230 -91 -230 -27 0 -29 17 -14 115 16 103 30313 21 304 -4 -3 -21 -85 -37 -183 -17 -98 -36 -194 -43 -213 -14 -43 -41 -63-59 -45 -10 10 -4 63 26 260 43 279 47 413 7 202 -74 -388 -90 -462 -102 -476-11 -14 -14 -12 -26 11 -16 29 -37 29 -39 -1 -1 -10 -2 -23 -3 -28 -2 -14 -3216 -44 44 -10 25 -10 24 -17 -13 -8 -45 -21 -60 -46 -55 -30 5 -28 52 6 241106 584 187 754 110 231 -33 -224 -37 -359 -10 -359 21 0 37 66 60 258 47 38452 422 62 435 6 7 34 12 68 12 40 0 62 5 70 16 10 11 23 14 50 9 28 -5 42 -254 11 21 20 15 40 -10 37 -85 -9 -79 -11 -77 30 3 46 -3 47 -21 2 -16 -38 -68-75 -105 -75 -23 0 -23 2 -18 48 3 26 24 111 46 190 41 141 49 192 32 192 -130 -45 -81 -86 -220 -47 -158 -82 -237 -96 -223 -8 8 -8 34 0 94 13 96 9 113-9 37 -26 -109 -67 -162 -96 -123 -17 23 -12 56 28 179 30 93 79 199 106 2298 9 25 17 38 17 18 0 27 11 44 58 30 81 73 143 140 205 47 44 67 56 105 61 264 49 5 52 2 3 -3 -13 -68 -36 -143 -68 -226 -51 -238 30 -22 29 78 60 144 75160 36 37 24 53 -35 46 -25 -3 -57 -9 -70 -13 -22 -7 -21 -2 18 54 23 34 79104 125 156 46 52 87 104 91 115 7 24 33 28 41 6 3 -8 1 -28 -4 -45 -6 -16 -8-30 -3 -30 10 0 37 57 46 100 12 55 57 120 83 120 12 0 14 -10 9 -53z m4278-110 c77 -79 165 -174 196 -213 61 -75 116 -164 102 -164 -16 0 -81 72 -432481 -19 22 -28 39 -20 39 7 0 76 -64 154 -143z m-3914 60 c-19 -20 -21 -20-27 -2 -5 13 0 24 17 38 22 18 24 18 27 2 2 -10 -5 -27 -17 -38z m4308 23 c7-21 17 -30 32 -30 15 0 63 -41 149 -127 129 -131 187 -204 175 -222 -11 -19-52 -12 -83 14 -41 35 -60 32 -64 -7 -3 -28 -7 -33 -32 -36 -50 -6 -116 8-116 24 0 8 -13 40 -29 72 -41 82 -71 187 -73 257 -3 85 20 115 41 55z m1806-240 c84 -112 205 -291 252 -373 33 -59 43 -107 21 -107 -19 0 -93 84 -128146 -18 32 -84 138 -145 234 -61 96 -115 181 -119 188 -4 7 -5 20 -2 29 6 149 14 28 -3 11 -11 53 -62 93 -114z m-5407 39 c12 -31 -4 -129 -23 -148 -15-15 -17 -14 -31 3 -16 23 -19 118 -4 147 14 25 49 24 58 -2z m3124 -15 c10-21 9 -27 -3 -35 -22 -14 -37 -11 -53 12 -19 28 -10 49 20 49 17 0 28 -8 36-26z m-3222 -79 c0 -99 -12 -122 -29 -57 -14 47 -14 93 -1 126 19 52 30 27 30-69z m4816 50 c35 -17 60 -37 70 -57 15 -29 15 -32 -4 -57 -32 -44 -59 -34-125 44 -32 39 -63 79 -69 89 -10 18 -7 19 31 13 23 -3 67 -17 97 -32z m572 1c41 -47 148 -227 227 -383 51 -101 66 -139 61 -158 -4 -15 -13 -25 -24 -25-30 0 -75 57 -179 225 -177 284 -197 330 -155 361 26 20 37 17 70 -20z m-998-77 c51 -61 135 -182 159 -230 7 -14 47 -68 88 -120 154 -192 375 -541 377-594 1 -27 -2 -30 -29 -30 -26 0 -38 12 -109 115 -103 150 -306 425 -419 569-116 148 -197 267 -197 291 0 20 44 60 66 60 7 0 36 -27 64 -61z m-950 -76c-1 -14 -8 -10 -33 19 -18 20 -40 51 -50 70 -17 29 -13 27 32 -19 28 -28 51-60 51 -70z m1824 74 c32 -35 243 -400 286 -495 22 -50 23 -54 7 -70 -25 -24-45 -8 -89 72 -21 37 -84 140 -141 229 -132 205 -162 264 -146 283 19 23 5016 83 -19z m-1951 -5 c52 -54 25 -82 -40 -42 -34 20 -37 27 -27 54 9 24 37 1967 -12z m944 -69 c61 -72 115 -147 138 -193 l18 -34 -31 -26 c-37 -31 -122-63 -144 -55 -37 15 -168 198 -168 236 0 9 7 23 16 30 14 11 29 -1 120 -96 57-60 106 -106 110 -102 4 3 -5 22 -19 40 -93 122 -137 192 -137 216 0 61 36 5597 -16z m849 38 c17 -10 47 -38 66 -62 55 -68 200 -294 258 -402 l53 -99 -20-26 c-36 -49 -51 -51 -84 -12 -27 32 -341 524 -368 578 -7 12 -9 27 -6 32 1016 68 11 101 -9z m-5988 -8 c-2 -10 -13 -19 -26 -21 -24 -4 -29 7 -10 26 1818 40 15 36 -5z m-80 -41 c3 -34 -4 -40 -70 -56 -25 -6 -28 -4 -28 21 0 36 3775 70 71 20 -2 26 -9 28 -36z m5942 -19 c70 -80 249 -374 317 -520 37 -80 40-126 10 -131 -27 -5 -50 20 -114 122 -31 50 -111 172 -176 270 -162 243 -177279 -124 303 28 13 45 4 87 -44z m-1821 -23 c83 -8 279 -56 389 -94 40 -14 41-14 94 26 66 49 106 71 118 63 6 -4 7 -37 3 -80 l-6 -74 37 -37 c41 -41 60-40 27 2 -30 38 -28 89 5 110 38 26 114 30 158 9 42 -20 176 -184 176 -216 0-21 -28 -39 -61 -39 -14 0 -41 18 -67 43 l-43 42 25 -45 c25 -44 33 -84 18-94 -15 -9 -74 25 -129 76 -60 56 -60 56 -1 -36 21 -33 38 -64 38 -69 0 -15-31 -47 -46 -47 -18 0 -69 54 -126 132 -46 63 -68 77 -68 44 0 -8 25 -51 55-97 58 -87 64 -109 40 -129 -20 -16 -34 -4 -76 63 -43 69 -56 79 -83 65 -66-34 -78 -69 -50 -151 8 -25 14 -56 12 -68 -4 -27 -51 -64 -72 -56 -34 13 -506639 -506 672 0 4 10 4 23 0 12 -3 64 -10 116 -15z m2905 -242 c123 -165 376-607 376 -657 0 -34 -22 -36 -47 -5 -13 16 -71 122 -128 236 -58 113 -135 255-171 315 -83 136 -107 183 -94 183 5 0 34 -33 64 -72z m-117 20 c53 -56 111-155 228 -389 122 -246 178 -379 169 -403 -8 -21 -37 -20 -56 2 -9 9 -42 67-75 127 -33 61 -86 152 -117 204 -74 122 -179 331 -201 402 -28 90 -5 116 5257z m-5957 3 c20 -38 10 -121 -15 -121 -16 0 -25 32 -25 86 0 56 19 73 40 35zm4492 -53 c174 -205 439 -611 415 -635 -11 -10 -72 53 -146 152 -87 115 -262368 -307 442 -61 101 -36 128 38 41z m-75 -63 c57 -60 200 -258 311 -431 93-146 109 -180 96 -202 -32 -50 -98 -6 -201 132 -117 159 -333 497 -333 522 027 27 45 55 38 11 -3 43 -30 72 -59z m1450 -12 c40 -58 213 -380 335 -626 61-124 62 -129 44 -143 -11 -8 -23 -14 -28 -14 -32 0 -152 211 -324 569 -93 196-113 245 -104 257 21 24 36 16 77 -43z m-1558 -113 c134 -185 318 -466 336-515 18 -46 18 -48 0 -61 -10 -8 -22 -14 -25 -14 -24 0 -185 205 -342 435-117 170 -138 222 -100 244 41 24 57 13 131 -89z m1468 -10 c102 -164 343-677 343 -732 0 -8 -7 -23 -15 -34 -15 -19 -15 -19 -34 3 -37 44 -381 743-397 807 -8 32 3 48 29 44 15 -2 39 -31 74 -88z m-6333 4 c8 -63 7 -569 -2-619 l-7 -40 -12 30 c-21 51 -33 153 -39 330 -6 154 4 308 22 336 14 23 32 638 -37z m4764 -107 c183 -245 322 -464 322 -506 0 -36 -28 -37 -66 0 -55 53-345 471 -393 566 -24 48 -27 79 -8 86 24 9 47 -15 145 -146z m1483 -47 c122-227 329 -651 329 -674 0 -62 -98 100 -296 490 -128 253 -160 327 -147 347 1017 40 -26 114 -163z m-1977 134 c26 -10 38 -41 26 -64 -15 -28 -39 -25 -50 6-20 52 -12 72 24 58z m344 -86 c126 -168 347 -516 367 -578 7 -23 -9 -50 -30-50 -40 0 -155 157 -339 462 -131 219 -145 258 -92 258 18 0 39 -21 94 -92zm-4425 61 c6 -24 -19 -209 -33 -242 -7 -15 -9 20 -7 108 1 72 6 136 10 143 1218 24 15 30 -9z m-292 -239 c6 -128 9 -304 7 -391 -3 -135 -6 -161 -21 -176-13 -14 -21 -15 -35 -7 -15 10 -17 37 -20 255 -3 255 11 517 29 551 22 42 30-5 40 -232z m6223 147 c70 -123 320 -626 416 -837 191 -424 259 -607 244 -665-7 -28 -54 -58 -78 -49 -8 3 -31 51 -52 107 -66 181 -240 579 -304 697 -76138 -286 568 -323 662 -15 36 -27 78 -27 91 0 31 46 88 64 81 8 -3 35 -42 60-87z m-1666 37 c28 -19 139 -188 270 -409 141 -240 162 -286 121 -270 -52 21-439 625 -439 685 0 15 22 12 48 -6z m6 -193 c113 -170 252 -395 285 -459 17-34 18 -42 7 -51 -19 -16 -59 -5 -84 22 -11 12 -65 99 -120 192 -55 94 -129217 -165 273 -36 57 -71 120 -78 140 -10 31 -9 37 6 48 14 10 22 11 32 2 8 -660 -81 117 -167z m-5779 127 c-12 -56 -33 -98 -49 -98 -28 0 -14 74 21 112 2527 35 22 28 -14z m7276 -55 c43 -67 265 -515 323 -651 97 -230 31 -146 -177224 -204 363 -243 445 -220 467 18 19 46 3 74 -40z m-1728 -15 c14 -19 18 -4218 -103 0 -43 -2 -80 -5 -82 -10 -10 -28 11 -71 85 -51 86 -56 118 -22 131 2911 57 0 80 -31z m-4448 -45 c7 -69 -11 -467 -25 -543 -5 -29 -10 -55 -10 -580 -3 -5 -1 -11 5 -25 25 -38 359 -19 512 11 81 31 141 49 141 5 0 12 -26 16-57z m4608 -100 c96 -154 267 -460 267 -478 0 -3 -6 -5 -14 -5 -8 0 -30 21-49 48 -52 72 -224 354 -252 414 -25 53 -33 108 -16 108 5 0 34 -39 64 -87zm-5645 50 c7 -49 -106 -615 -146 -733 -20 -57 -45 -76 -55 -40 -16 61 101 676145 763 21 42 51 47 56 10z m7018 -79 c116 -181 380 -704 355 -704 -4 0 -4969 -99 153 -96 160 -159 245 -146 197 3 -14 39 -97 79 -185 82 -181 88 -19576 -195 -4 0 -41 52 -82 115 -41 64 -118 183 -171 265 -197 304 -210 330 -182361 9 10 20 19 24 19 4 0 26 -27 49 -60 57 -81 66 -83 31 -8 -32 67 -38 104-17 111 22 8 47 -13 83 -69z m-7146 46 c0 -107 -140 -754 -169 -783 -17 -17-25 0 -22 46 5 97 123 645 155 721 16 39 36 48 36 16z m1573 -50 c9 -47 2-136 -13 -160 -18 -30 -32 7 -32 87 0 88 8 126 25 120 7 -2 16 -23 20 -47zm87 -20 c0 -50 -19 -112 -33 -107 -18 6 -16 129 2 151 18 22 31 5 31 -44zm-631 -11 c12 -35 15 -318 4 -384 -5 -31 -8 -35 -14 -20 -4 11 -8 32 -8 48 -248 -21 29 -21 -20 0 -61 -9 -93 -25 -93 -20 0 -28 92 -23 269 5 157 12 191 47218 24 18 28 16 40 -18z m-1154 -121 c-50 -247 -156 -627 -163 -582 -7 47 114576 149 652 30 63 35 35 14 -70z m5862 60 c21 -29 65 -96 98 -148 32 -52 74-115 92 -140 26 -34 33 -52 31 -79 -7 -78 -49 -40 -161 147 -88 147 -131 237-123 257 9 25 22 17 63 -37z m1184 -5 c59 -67 355 -537 424 -672 17 -33 17-35 -1 -48 -10 -7 -21 -13 -26 -13 -19 0 -81 67 -120 131 -37 60 -58 83 -5863 0 -3 23 -55 51 -115 28 -60 48 -113 44 -119 -11 -17 -42 -11 -74 15 -38 32-417 616 -441 679 -22 60 73 76 129 22 39 -37 41 -33 14 23 -14 28 -22 55 -1860 13 21 43 10 76 -26z m1518 -23 c35 -49 105 -206 159 -360 49 -138 86 -27078 -277 -9 -10 -177 356 -252 549 -50 128 -43 168 15 88z m-18 -225 c129 -258202 -431 194 -465 -8 -35 -50 -69 -66 -53 -15 15 -207 493 -224 559 -21 80-20 116 3 112 11 -2 44 -57 93 -153z m-1677 18 c100 -153 305 -492 342 -56418 -36 22 -55 15 -62 -21 -21 -58 26 -303 383 -221 323 -229 337 -190 359 3923 52 12 136 -116z m-1006 50 c49 -84 122 -229 122 -243 0 -21 -22 3 -65 71-53 82 -115 203 -115 224 0 30 19 14 58 -52z m831 -45 c67 -90 330 -505 377-596 47 -91 51 -118 21 -136 -24 -14 -33 -3 -198 260 -265 421 -301 486 -284514 15 24 46 8 84 -42z m1669 20 c44 -54 236 -500 248 -578 5 -33 2 -43 -20-65 -30 -30 -39 -27 -65 23 -33 66 -198 467 -206 501 -19 88 7 161 43 119zm-1791 -70 c40 -43 90 -119 205 -313 130 -219 205 -356 210 -380 4 -24 -26-32 -49 -14 -34 28 -141 180 -292 412 -195 299 -184 279 -165 305 22 31 55 2791 -10z m-687 -101 c23 -42 40 -84 37 -92 -7 -18 -82 -38 -113 -31 -30 8 -3746 -24 132 19 120 32 118 100 -9z m2424 -80 c89 -183 175 -396 182 -452 5 -342 -44 -20 -64 -14 -13 -31 -21 -39 -18 -16 6 -231 540 -247 614 -8 38 -8 57 072 21 39 48 6 124 -152z m-1836 61 c74 -115 295 -479 346 -570 21 -38 33 -6828 -68 -11 0 -131 176 -274 400 -160 253 -200 330 -169 330 5 0 36 -42 69 -92zm-6623 30 c-26 -167 -62 -277 -92 -286 -37 -11 -22 66 49 251 33 85 54 102 4335z m6484 -14 c41 -34 346 -523 418 -668 43 -88 12 -115 -54 -48 -21 21 -5667 -77 102 -22 36 -96 155 -166 265 -198 314 -209 335 -184 360 21 20 27 1963 -11z m1809 -55 c37 -74 210 -485 225 -537 15 -48 13 -102 -3 -102 -19 0-51 64 -104 209 -31 85 -81 213 -110 285 -58 142 -69 179 -59 190 13 13 28 -151 -45z m-6873 -4 c0 -30 -39 -27 -43 3 -3 20 0 23 20 20 15 -2 23 -10 23 -23zm4998 -70 c137 -201 385 -659 374 -689 -4 -10 -11 -14 -17 -11 -18 11 -73 104-202 340 -70 127 -149 271 -177 320 -52 92 -67 141 -35 114 9 -7 35 -40 57-74z m-5153 46 l5 -22 18 22 c18 20 19 20 38 3 12 -11 19 -28 17 -43 -2 -21-10 -27 -38 -31 -30 -4 -35 -9 -38 -35 -10 -82 -52 -56 -52 31 0 83 35 136 5075z m5027 -3 c17 -18 61 -87 98 -153 74 -131 325 -618 325 -628 0 -4 -27 -7-61 -7 -105 0 -153 48 -154 155 -1 47 -9 76 -38 139 -50 105 -161 300 -165288 -1 -5 13 -46 33 -90 39 -89 42 -100 20 -82 -35 29 -195 308 -195 340 0 616 10 37 8 31 -2 38 1 41 17 9 55 17 57 59 13z m-5448 -762 c0 -269 -2 -487-5 -483 -14 13 -34 203 -45 420 -14 285 -6 588 18 690 l18 72 6 -105 c4 -58 7-325 8 -594z m5295 640 c49 -53 181 -289 282 -504 76 -163 91 -222 55 -222-26 0 -29 4 -134 210 -103 203 -166 314 -174 307 -3 -3 38 -95 90 -204 105-220 122 -263 105 -263 -17 0 -89 81 -126 143 -38 64 -105 298 -96 339 3 17-7 55 -30 112 -55 133 -45 162 28 82z m1929 -27 c44 -76 160 -345 155 -360 -4-12 -126 203 -187 330 -39 80 -43 107 -18 98 7 -2 29 -32 50 -68z m-7317 35c4 -14 1 -155 -5 -312 -7 -158 -16 -378 -20 -490 -6 -157 -11 -207 -23 -218-13 -13 -17 -12 -34 7 -18 20 -19 39 -18 388 0 429 16 591 60 636 22 22 33 1940 -11z m7207 -22 c40 -43 217 -401 217 -437 0 -12 -4 -14 -16 -7 -34 19 -143135 -155 166 -7 17 -25 42 -40 56 -30 29 -73 110 -83 156 -5 23 -2 37 14 5725 32 41 34 63 9z m-7343 -17 c6 -16 6 -60 0 -123 -5 -53 -17 -196 -25 -317-22 -324 -38 -445 -56 -445 -32 0 15 803 52 883 15 33 17 33 29 2z m-260 -70c0 -31 -7 -115 -15 -188 -8 -73 -26 -240 -40 -373 -24 -229 -37 -304 -55 -304-26 0 -26 151 0 408 34 325 70 512 99 512 7 0 11 -23 11 -55z m80 40 c0 -1915 -19 46 1 13 9 28 14 32 10 8 -8 -45 -713 -60 -800 -12 -67 -42 -106 -83-106 l-25 0 0 123 c0 119 24 547 36 637 8 67 33 150 44 150 6 0 10 -7 10 -15zm-194 -20 c3 -8 -6 -108 -20 -222 -14 -115 -31 -273 -37 -353 -24 -334 -23-322 -42 -334 -68 -41 -65 158 13 804 6 52 13 101 15 108 6 17 64 15 71 -3zm7581 -2 c7 -10 36 -63 65 -118 28 -55 62 -115 76 -133 20 -26 23 -38 15 -50-20 -33 -41 -25 -66 25 -31 61 -117 269 -117 283 0 15 11 12 27 -7z m-7905-29 c10 -22 6 -75 -21 -293 -55 -440 -90 -641 -111 -641 -29 0 -9 308 46 70033 236 57 299 86 234z m178 -46 c0 -40 -18 -233 -40 -429 -38 -348 -57 -445-84 -436 -16 6 -10 129 20 362 51 405 79 575 95 575 5 0 9 -33 9 -72z m-96 0c-22 -156 -28 -188 -37 -188 -12 0 -3 143 12 183 13 33 29 36 25 5z m7686 -56c47 -49 132 -202 145 -259 3 -17 2 -40 -4 -51 -12 -23 -65 -47 -86 -38 -26 9-118 223 -145 336 -10 37 1 60 28 60 9 0 36 -21 62 -48z m1264 -34 c2 -13 11-68 20 -123 9 -55 38 -181 64 -280 27 -99 52 -197 56 -217 14 -79 -43 -48 -6435 -6 23 -40 137 -76 252 -77 248 -86 303 -55 334 27 27 49 27 55 -1z m-1382-31 c14 -24 41 -86 62 -138 20 -52 41 -104 47 -117 5 -13 9 -32 9 -44 0 -20-1 -20 -18 3 -36 46 -143 234 -154 271 -22 75 16 93 54 25z m-110 -87 c45 -69129 -222 152 -280 19 -48 10 -72 -18 -45 -54 54 -206 324 -206 366 0 36 33 1772 -41z m1372 -2 c16 -24 80 -211 91 -265 10 -50 -9 -39 -29 16 -19 54 -42 80-55 65 -5 -5 15 -92 45 -194 70 -242 79 -336 31 -317 -16 6 -17 13 -56 232-11 66 -39 183 -61 260 -44 156 -49 199 -22 214 26 16 40 13 56 -11z m-1507-40 c38 -41 117 -172 150 -248 36 -82 41 -121 18 -140 -21 -18 -50 -4 -78 38-45 65 -148 287 -154 330 -5 39 -4 42 19 42 13 0 34 -10 45 -22z m781 -100c43 -40 104 -91 135 -113 31 -22 57 -42 57 -46 0 -11 -392 -299 -409 -299 -150 -23 18 -76 172 -26 76 -45 144 -42 153 4 8 18 15 35 15 34 0 49 12 86 67 3045 109 123 125 123 5 0 45 -33 89 -72z m-8157 21 c-9 -23 -10 -22 -10 11 -123 2 31 9 24 7 -7 7 -19 1 -35z m8339 -16 c0 -13 -4 -23 -9 -23 -12 0 -21 26-21 58 1 26 1 26 15 8 8 -11 15 -30 15 -43z m410 33 c14 -39 140 -608 140-636 0 -15 -10 -36 -23 -49 -21 -19 -26 -20 -36 -7 -22 26 -151 569 -151 6340 29 33 82 51 82 5 0 14 -11 19 -24z m-1513 -18 c26 -28 119 -181 161 -263 59-119 39 -152 -32 -53 -67 95 -186 299 -186 320 0 25 32 23 57 -4z m-64 -135c74 -111 150 -258 145 -275 -3 -7 -34 33 -70 88 -97 147 -167 284 -144 284 30 34 -44 69 -97z m-107 -23 c65 -101 136 -252 124 -264 -19 -19 -79 22 -13091 -79 107 -113 219 -73 242 24 13 28 9 79 -69z m1553 53 c12 -24 48 -192 56-268 7 -60 7 -60 -12 -40 -11 11 -27 40 -36 65 -44 123 -51 322 -8 243zm-8834 -215 c-15 -101 -29 -185 -32 -188 -15 -15 20 321 40 380 22 67 19 -3-8 -192z m8768 121 c-17 -17 -43 7 -43 39 l0 27 27 -28 c21 -20 25 -29 16 -38zm-1649 10 c43 -51 87 -149 67 -149 -13 0 -88 85 -106 120 -16 31 -15 60 4 605 0 21 -14 35 -31z m-6926 -56 l-4 -28 -8 28 c-5 15 -5 39 0 55 l8 27 4 -27c2 -16 2 -40 0 -55z m8564 -58 c10 -11 27 -51 39 -90 11 -38 38 -99 59 -13554 -90 90 -174 95 -224 5 -40 4 -42 -45 -79 -247 -185 -507 -367 -525 -367-15 0 -43 69 -86 210 -30 99 -49 142 -49 109 0 -7 16 -72 35 -144 19 -71 35-143 35 -159 0 -48 -40 -104 -120 -165 -116 -90 -601 -411 -689 -456 -34 -17-35 -17 -53 5 -10 12 -32 68 -49 124 -69 230 -83 270 -86 254 -2 -9 16 -10341 -209 25 -105 46 -200 46 -209 0 -36 -150 -129 -550 -342 -251 -134 -280-151 -280 -160 0 -10 67 23 405 197 340 174 422 215 435 215 5 0 15 -9 23 -2016 -23 27 -16 27 18 0 44 38 78 197 180 87 56 273 178 413 271 140 93 257 168261 165 4 -2 17 -33 29 -69 12 -36 23 -65 24 -65 1 0 1 37 -2 83 -4 82 -4 8229 116 53 53 542 403 567 405 17 1 58 -97 72 -172 14 -79 13 -167 -6 -320 -18-142 -17 -148 27 -250 l23 -52 -49 -51 c-119 -122 -485 -399 -527 -399 -22 0-39 66 -78 305 -10 67 -10 75 6 -232 l7 -122 -117 -76 c-225 -146 -577 -349-701 -406 -35 -16 -91 -46 -124 -68 -108 -69 -909 -466 -1025 -507 -43 -16-62 -8 -76 31 -6 17 -8 15 -15 -15 -4 -19 -15 -43 -24 -54 -47 -53 -561 -266-643 -266 -19 0 -27 4 -22 11 3 6 12 143 20 304 14 304 18 334 64 392 11 1420 39 20 54 0 39 50 74 178 127 185 77 210 78 244 11 l18 -34 -6 51 c-6 47 -452 24 76 17 14 64 44 105 67 42 22 79 46 82 51 7 11 -18 2 -118 -45 -38 -17-66 -25 -82 -21 -35 9 -67 70 -142 268 -60 159 -83 209 -83 182 0 -6 31 -10269 -215 91 -273 88 -253 48 -283 -46 -35 -176 -94 -224 -102 -39 -6 -41 -5-51 27 -6 19 -16 61 -23 94 -6 33 -22 81 -35 106 -25 50 -104 134 -133 142-10 2 -43 -4 -72 -14 -68 -24 -92 -24 -192 2 -130 33 -171 29 -301 -33 -99-47 -118 -53 -176 -53 -52 0 -72 5 -97 23 -18 13 -33 31 -33 41 0 20 11 26180 91 69 26 262 105 430 175 339 141 503 205 525 205 8 0 19 -8 24 -17 9 -1510 -15 11 -2 1 46 148 132 759 442 432 219 455 229 469 211 13 -18 42 -77 63-133 16 -41 19 -18 5 39 -27 108 -27 117 -1 148 13 16 75 60 137 97 62 38 223137 358 220 135 84 268 164 295 178 45 25 50 25 67 10 9 -8 32 -53 49 -99 17-46 35 -84 40 -84 4 0 -1 30 -12 68 -11 37 -25 91 -32 121 l-12 54 34 26 c1914 127 90 240 168 l206 141 45 -36 c25 -20 53 -46 62 -57z m509 -69 c14 -62 7-96 -10 -52 -7 16 -15 50 -18 74 -9 63 12 47 28 -22z m-8431 -136 c5 -55 -1-111 -9 -105 -12 7 -25 110 -17 132 9 21 24 6 26 -27z m8565 -43 c17 -56 20-167 5 -167 -15 0 -66 213 -54 231 11 18 33 -12 49 -64z m-8705 23 c15 -36 -1-63 -34 -58 -38 5 -30 88 9 88 7 0 18 -14 25 -30z m-153 -25 c6 -18 -25 -58-38 -49 -11 6 -12 48 -2 57 12 12 33 7 40 -8z m-136 -41 c18 -82 3 -354 -25-459 l-13 -50 -9 50 c-15 81 -11 446 4 473 17 30 35 24 43 -14z m8920 -15 c-9-23 -10 -22 -10 11 -1 23 2 31 9 24 7 -7 7 -19 1 -35z m-9056 -61 c11 -130 2-761 -12 -765 -22 -8 -28 71 -28 407 0 321 6 430 25 430 4 0 11 -33 15 -72zm-181 -185 c1 -212 -8 -251 -39 -169 -15 39 -17 69 -13 198 3 86 11 166 18183 l12 30 11 -25 c6 -14 10 -108 11 -217z m9160 200 c22 -44 55 -187 76 -33422 -149 28 -423 9 -434 -17 -11 -21 0 -30 87 -5 46 -27 182 -49 303 -48 252-59 367 -40 390 16 20 17 20 34 -12z m-9280 -181 c10 -78 26 -175 37 -215 55-202 81 -316 82 -357 2 -44 1 -45 -35 -54 -41 -10 -92 5 -104 32 -12 26 -17759 -6 747 5 -5 17 -74 26 -153z m9383 81 c-2 -16 -4 -5 -4 22 0 28 2 40 4 282 -13 2 -35 0 -50z m-219 -8 c42 -92 112 -503 112 -658 0 -68 -2 -78 -14 -68-14 12 -38 102 -71 271 -10 47 -24 101 -32 120 -8 19 -19 51 -24 70 -10 41-13 265 -4 280 10 16 21 12 33 -15z m257 -135 c8 -16 14 -52 14 -82 l-1 -53-13 60 c-6 33 -15 70 -19 83 -10 32 1 27 19 -8z m-7991 -265 c8 -30 -8 -65-30 -65 -23 0 -38 43 -25 69 16 29 47 27 55 -4z m-118 1 c17 -14 18 -16 3 -31-14 -15 -18 -14 -39 3 -39 31 -5 58 36 28z m250 -51 c-3 -9 -14 -15 -23 -13-20 4 -28 30 -18 55 5 15 8 14 27 -4 13 -13 18 -28 14 -38z m369 -43 c14 -2025 -40 25 -44 0 -16 -47 -8 -64 11 -18 20 -37 76 -29 85 10 10 43 -14 68 -52zm-160 11 c14 -21 25 -43 25 -50 0 -21 -48 -15 -60 6 -16 30 -12 81 6 81 2 015 -17 29 -37z m299 14 c16 -26 -27 -62 -55 -47 -19 10 -26 50 -12 64 13 1256 2 67 -17z m-1654 -54 c0 -12 -4 -24 -9 -27 -12 -8 -21 19 -21 62 l1 37 14-25 c8 -14 14 -35 15 -47z m1270 -6 c0 -10 -5 -15 -11 -12 -14 9 -28 48 -2159 7 12 32 -24 32 -47z m7457 -134 c-2 -16 -4 -5 -4 22 0 28 2 40 4 28 2 -132 -35 0 -50z m-8215 -89 c4 -27 12 -103 17 -169 6 -66 13 -135 17 -152 9 -45-13 -43 -32 2 -50 120 -65 387 -21 372 7 -2 15 -26 19 -53z m-601 -36 c19 -93-7 -170 -45 -133 -23 23 -30 79 -16 133 13 52 29 77 41 65 5 -5 14 -34 20 -65zm-153 26 c37 -25 52 -67 52 -142 0 -44 5 -73 13 -80 6 -5 49 -20 95 -32 81-22 104 -37 138 -96 10 -17 12 -17 41 4 41 29 48 28 63 -8 7 -16 24 -41 37-55 23 -22 34 -25 102 -25 57 0 86 -5 114 -20 20 -11 44 -20 52 -20 8 0 24-14 34 -32 20 -31 61 -169 61 -202 0 -24 -45 -63 -83 -72 -32 -7 -32 -7 -7-15 14 -4 39 -7 57 -8 18 -1 40 -10 51 -21 10 -11 36 -82 57 -157 21 -76 59-199 85 -273 41 -117 70 -239 70 -295 0 -15 -33 -16 -353 -13 -424 4 -400 -3-467 136 -83 171 -217 539 -202 554 5 5 92 13 193 18 406 20 431 34 74 40l-289 5 -28 90 c-32 104 -99 401 -127 566 -15 88 -17 117 -8 128 32 39 134 54175 25z m9222 -3 c13 -26 13 -89 -2 -168 -16 -90 -28 -60 -28 75 0 110 8 13430 93z m-8980 -106 c0 -16 -5 -37 -10 -45 -7 -11 -10 3 -10 45 0 42 3 56 1045 5 -8 10 -28 10 -45z m450 -117 c12 -56 20 -119 18 -142 -3 -38 -4 -39 -15-20 -16 28 -43 194 -42 259 0 66 12 38 39 -97z m8429 119 c21 -54 53 -391 36-375 -16 15 -80 372 -69 389 9 16 24 9 33 -14z m-8779 -26 c26 -38 51 -97 43-104 -20 -21 -83 58 -83 106 0 35 13 34 40 -2z m259 -19 c13 -25 33 -170 29-212 -3 -34 -4 -32 -25 30 -40 115 -49 200 -22 200 4 0 13 -8 18 -18z m-95-73 c9 -28 18 -74 21 -103 6 -47 5 -50 -9 -32 -17 22 -54 114 -63 158 -5 23-2 28 15 28 17 0 24 -11 36 -51z m8489 -76 c-4 -71 -1 -127 12 -202 22 -13117 -185 -34 -338 -70 -214 -70 -215 -180 -287 -175 -114 -399 -242 -408 -232-12 11 -22 235 -22 476 l-1 255 85 53 c47 29 154 103 237 165 217 158 290 207304 207 10 0 12 -22 7 -97z m-7935 -40 c5 -10 12 -43 15 -73 4 -36 22 -84 52-143 50 -97 52 -107 29 -107 -18 0 -66 100 -109 228 -52 151 -63 74 -15 -10353 -197 30 -210 -34 -20 -43 127 -55 197 -36 220 18 22 87 20 98 -2z m1559-15 c6 -5 15 -24 19 -41 19 -91 124 -367 139 -367 10 0 -6 68 -46 205 -44 147-48 189 -20 205 51 27 90 -19 152 -174 29 -72 55 -134 58 -138 4 -5 -2 37 -1392 -11 54 -18 102 -14 105 11 11 72 -26 105 -63 30 -34 36 -37 88 -37 l56 074 -220 c82 -244 97 -305 72 -305 -8 0 -29 17 -46 38 l-31 37 7 -30 c15 -6512 -70 -37 -68 -58 3 -106 -13 -151 -49 -58 -46 -77 -37 -125 58 -23 45 -4487 -46 95 -3 8 -8 12 -11 9 -3 -3 3 -39 13 -80 25 -97 25 -125 -1 -144 -25-17 -44 -12 -82 23 l-28 26 11 -29 c14 -39 8 -53 -29 -61 -42 -9 -65 6 -10775 -20 33 -38 59 -40 57 -1 -1 6 -38 18 -80 11 -43 17 -81 14 -84 -3 -4 -33-5 -66 -4 -47 2 -62 -1 -66 -13 -8 -21 -37 -20 -57 2 -46 51 -229 492 -273659 -14 54 -28 133 -31 176 -5 66 -4 77 10 77 9 0 23 -12 31 -27 8 -16 15 -2316 -17 0 6 14 17 31 24 35 15 96 1 121 -27 15 -17 55 -117 94 -233 29 -87 29-27 0 76 -14 49 -28 106 -32 126 -8 46 11 105 38 119 45 24 158 29 185 7zm6442 -40 c20 -119 23 -148 13 -148 -9 0 -27 72 -37 158 -10 75 10 66 24 -10zm-8149 -75 c10 -42 17 -80 14 -83 -11 -11 -42 41 -54 90 -13 56 -6 118 11 885 -9 18 -52 29 -95z m1140 22 c5 -3 11 -24 15 -48 9 -54 51 -174 192 -540 63-164 112 -305 109 -313 -3 -8 -17 -14 -30 -14 -47 0 -73 38 -119 175 -70 207-146 393 -147 359 0 -6 38 -124 85 -263 47 -139 85 -261 85 -272 0 -16 -7 -19-42 -19 -25 0 -49 -7 -60 -17 -14 -13 -25 -15 -46 -7 -38 14 -77 96 -173 369-67 194 -99 271 -99 244 0 -10 77 -269 124 -418 51 -161 57 -201 27 -201 -100 -22 8 -26 18 -47 115 -168 518 -189 632 -18 94 -21 170 -6 170 6 0 10 -6 10-14 0 -7 7 -19 15 -26 12 -10 15 -7 21 15 3 14 4 44 0 66 -4 23 -2 48 5 60 1020 12 20 29 4 11 -10 28 -45 40 -79 24 -71 36 -93 46 -83 4 4 -3 40 -15 80-29 90 -26 108 19 124 32 12 110 10 130 -2z m1726 -84 c54 -25 88 -62 128-141 40 -79 78 -188 71 -201 -11 -17 -61 -9 -82 14 -26 28 -42 58 -98 181 -2555 -47 97 -50 94 -3 -3 15 -65 40 -138 51 -148 56 -203 18 -208 -40 -6 -103110 -169 311 -24 76 -26 89 -14 97 25 16 113 11 156 -9z m-2834 -135 c26 -3627 -41 12 -57 -14 -16 -13 -18 18 -24 43 -10 79 -28 134 -70 28 -21 64 -38101 -45 32 -7 103 -26 158 -42 92 -28 103 -29 155 -18 30 6 75 21 100 33 l4522 0 94 c0 144 23 133 65 -32 27 -108 35 -177 21 -177 -6 0 -11 10 -11 23 029 -15 50 -30 45 -10 -3 -13 -47 -15 -168 -2 -164 -14 -249 -51 -362 -17 -53-30 -60 -149 -77 -95 -14 -384 -35 -390 -29 -11 11 -137 373 -176 505 -44 151-61 273 -39 273 9 0 7 8 -7 23 -38 41 -83 159 -83 217 0 14 109 -89 142 -134zm2636 77 c29 -52 122 -311 122 -339 0 -26 -23 -47 -47 -42 -26 5 -75 93 -117209 -34 95 -44 166 -30 204 11 29 47 13 72 -32z m-282 10 c9 -10 27 -40 39-68 28 -61 110 -315 119 -367 7 -36 6 -37 -31 -47 -50 -14 -76 4 -97 66 -35108 -113 408 -109 420 7 19 59 16 79 -4z m154 -2 c17 -33 121 -367 123 -398 2-22 -3 -29 -19 -31 -16 -2 -28 7 -44 33 -60 98 -140 302 -140 359 0 18 5 3712 44 18 18 56 14 68 -7z m586 -143 c25 -23 52 -54 59 -69 13 -24 12 -28 -6-45 -42 -38 -106 26 -125 124 -9 46 15 42 72 -10z m4279 15 c6 -17 24 -464 25-628 l0 -71 -252 -144 c-289 -165 -548 -300 -577 -300 -11 0 -32 -11 -46 -24-15 -14 -107 -66 -205 -116 -272 -138 -249 -143 48 -10 90 40 164 71 167 69 2-2 8 -81 13 -174 7 -143 9 -155 10 -74 1 53 5 136 8 185 l7 89 91 51 c560 313692 384 715 384 16 0 14 -49 -9 -245 -21 -182 -23 -201 -15 -193 10 10 36 16555 326 10 90 20 166 23 168 3 3 74 47 158 97 85 51 204 126 265 165 63 41 12474 140 75 27 2 29 0 27 -30 -4 -47 -93 -251 -217 -498 -99 -197 -118 -228-181 -294 -94 -99 -256 -223 -272 -207 -3 3 -9 31 -12 63 l-7 58 -13 -45 c-26-95 -33 -110 -74 -147 -46 -42 -376 -234 -540 -314 -56 -27 -120 -52 -142 -56-22 -3 -49 -13 -60 -23 -50 -44 -296 -171 -567 -293 -134 -61 -297 -127 -313-127 -2 0 -13 44 -25 98 -36 165 -39 172 -32 87 4 -44 7 -109 7 -144 l0 -63-115 -49 c-159 -68 -270 -109 -520 -195 -243 -82 -477 -154 -502 -154 -10 0-31 25 -52 65 -20 35 -41 67 -46 70 -19 12 -10 -19 16 -57 37 -52 28 -80 -39-118 -86 -49 -466 -165 -483 -147 -4 4 11 28 32 53 60 72 74 97 74 126 0 1910 35 34 53 38 29 93 128 125 225 47 145 82 163 138 70 18 -30 33 -53 33 -500 3 -11 48 -24 100 -34 133 -42 124 183 204 178 64 292 112 317 132 18 14 1715 -10 9 -17 -3 -108 -35 -203 -71 -95 -35 -193 -67 -218 -71 -52 -7 -56 -2-76 114 -14 86 -13 89 95 202 74 77 147 131 178 131 31 0 55 56 72 168 18 11030 141 69 166 33 21 501 220 576 245 35 12 72 21 82 21 23 0 45 -33 76 -11321 -55 23 -58 18 -22 -3 22 -11 62 -17 88 -11 45 -11 49 13 71 35 35 247 151549 300 284 141 502 242 535 248 11 1 26 11 33 21 22 28 116 87 322 202 10760 247 140 310 178 116 71 186 106 206 107 7 0 15 -8 19 -17z m789 8 c3 -4 -3-16 -13 -25 -21 -19 -37 -7 -27 19 6 16 32 20 40 6z m-7879 -76 c0 -30 -39-27 -43 3 -3 20 0 23 20 20 15 -2 23 -10 23 -23z m384 -1 c13 -29 6 -67 -12-61 -14 4 -22 87 -9 87 5 0 14 -12 21 -26z m3475 -21 c3 -21 30 -106 60 -19099 -273 113 -371 28 -193 -104 220 -152 386 -120 418 16 16 25 7 32 -35z m961 c56 -89 146 -329 157 -419 l6 -50 -21 19 c-12 10 -33 38 -47 61 -43 74 -165385 -165 422 0 7 9 13 20 13 13 0 31 -16 50 -46z m390 -6 c89 -88 135 -222100 -289 -27 -49 -46 -15 -134 239 -19 56 -32 102 -28 102 5 0 32 -24 62 -52zm-245 -27 c25 -37 108 -258 124 -332 13 -55 -8 -70 -42 -30 -41 49 -165 376-153 406 8 23 40 3 71 -44z m-748 17 c16 -18 43 -50 59 -72 28 -38 28 -38 42-17 17 25 35 27 52 6 20 -24 170 -476 170 -512 0 -41 -8 -41 -45 -3 -16 17-32 30 -36 30 -4 0 -11 -21 -15 -46 -5 -38 -3 -49 14 -67 57 -60 242 -556 242-646 0 -26 -16 -51 -32 -51 -20 0 -109 207 -258 595 -119 311 -198 502 -210510 -19 12 85 -291 195 -570 133 -337 194 -506 188 -521 -8 -22 -77 -54 -115-54 -22 0 -42 9 -64 31 l-32 31 5 -45 c5 -38 2 -47 -18 -61 -53 -37 -94 -9-132 90 -13 32 -67 158 -120 280 -53 121 -98 231 -99 244 -2 18 4 25 32 36 4616 95 17 107 2 5 -7 17 -38 26 -68 9 -30 21 -62 26 -70 20 -30 21 -1 2 61 -2894 -29 104 -19 123 12 21 -5 21 -92 0 -98 -23 -102 -20 -164 109 -43 88 -216507 -216 521 0 7 89 26 118 26 16 0 34 -6 40 -12 6 -7 40 -87 77 -178 73 -179114 -265 121 -257 3 3 -22 86 -55 184 -32 99 -65 208 -72 243 -11 58 -11 64 676 24 18 53 18 87 0 27 -14 27 -14 30 22 4 47 25 52 42 10 l14 -33 7 30 c1152 14 55 38 55 13 0 36 -14 54 -32z m865 15 c23 -26 65 -114 105 -216 39 -10141 -150 6 -155 -28 -4 -63 54 -109 183 -40 114 -55 205 -32 205 8 0 22 -8 30-17z m-3927 -28 c0 -24 -38 -33 -61 -14 -21 17 2 41 35 37 18 -2 26 -9 26 -23zm3487 -51 c37 -69 159 -437 149 -447 -5 -5 -18 -6 -29 -3 -14 5 -40 54 -91171 -89 204 -101 238 -101 285 0 69 33 67 72 -6z m-76 -140 c50 -126 124 -338124 -354 0 -13 -42 -20 -61 -9 -21 11 -70 111 -140 285 -57 144 -61 177 -21198 15 8 31 14 37 12 5 -1 33 -61 61 -132z m-5418 38 c9 -29 -186 -117 -245-110 -79 9 2 68 148 107 79 21 91 21 97 3z m4566 -114 c96 -203 196 -458 196-501 0 -48 -24 -50 -67 -4 -36 38 -55 73 -118 227 -90 217 -125 342 -110 38914 46 37 20 99 -111z m-2271 2 c34 -88 97 -304 97 -332 0 -32 -23 -16 -47 32-23 45 -88 271 -100 344 -10 64 18 39 50 -44z m2115 -2 c76 -134 211 -454 227-540 6 -31 4 -37 -15 -43 -50 -16 -92 38 -143 180 -14 39 -52 135 -85 215 -89214 -97 260 -48 260 17 0 32 -17 64 -72z m-4350 13 c2 -18 0 -40 -3 -49 -6-14 -10 -11 -21 13 -19 44 -18 77 4 73 11 -2 18 -14 20 -37z m4235 -83 c125-253 214 -530 178 -553 -21 -13 -50 26 -105 139 -90 187 -176 424 -176 486 028 18 52 35 47 5 -1 36 -55 68 -119z m-113 -103 c70 -144 147 -334 170 -41716 -60 9 -80 -27 -76 -42 5 -79 69 -160 274 -105 266 -129 354 -101 382 21 2147 -15 118 -163z m-4270 96 c5 -20 19 -71 30 -115 24 -90 123 -361 203 -551105 -253 132 -272 42 -30 -55 148 -64 178 -45 159 21 -21 363 -832 680 -161495 -234 338 -832 540 -1330 434 -1068 500 -1240 476 -1240 -11 0 -65 118 -216475 -194 459 -281 657 -287 651 -7 -6 26 -93 207 -551 189 -476 213 -542 199-551 -17 -10 -83 71 -109 133 -140 342 -326 771 -341 788 -13 13 2 -28 121-330 102 -259 171 -450 185 -513 4 -22 20 -42 46 -61 43 -32 216 -112 449-208 85 -35 159 -68 164 -73 55 -55 -425 128 -624 238 -86 47 -150 91 -150102 0 5 17 10 38 12 37 3 37 3 12 17 -13 8 -51 14 -83 15 -53 1 -61 -2 -75-24 -26 -39 -164 -180 -178 -180 -6 0 -15 8 -19 18 -28 67 -81 242 -266 872-245 835 -289 980 -301 980 -16 0 -45 106 290 -1050 204 -703 235 -817 228-837 -4 -9 -16 -13 -33 -11 -27 3 -28 6 -34 73 -8 90 -14 113 -103 411 -41137 -102 346 -136 464 -112 390 -158 518 -182 504 -8 -5 -9 5 -5 33 17 102-79 444 -120 429 -12 -5 -13 6 -7 64 6 65 5 70 -11 64 -16 -7 -18 -3 -12 41l7 49 -26 -25 -26 -24 5 30 c18 93 19 120 6 108 -7 -7 -19 -13 -26 -13 -13 0-49 104 -59 174 l-7 41 28 -25 c25 -22 27 -23 22 -5 -3 11 -16 58 -27 105 -2185 -38 117 -47 93 -3 -7 -9 -13 -14 -13 -6 0 -7 27 -3 68 6 62 5 65 -9 47 -8-11 -19 -17 -23 -13 -3 4 -19 51 -34 105 -15 54 -38 136 -52 183 -35 117 -41160 -22 160 21 0 18 34 -15 151 -68 243 -95 369 -80 369 5 0 10 -10 10 -22 2-22 2 -22 6 -2 5 25 -11 89 -114 464 -136 497 -183 674 -183 695 0 22 33 5960 67 26 8 39 -3 50 -41z m4097 -26 c39 -68 172 -425 203 -543 13 -50 2 -72-35 -72 -27 0 -45 20 -78 85 -48 97 -197 502 -197 535 0 19 34 41 59 38 18 -232 -15 48 -43z m-69 -223 c121 -308 137 -358 124 -388 -14 -30 -70 -58 -147-74 -33 -7 -69 -19 -80 -26 -31 -22 -61 -16 -90 18 -33 39 -118 208 -184 364-79 191 -85 230 -35 252 37 18 65 15 91 -10 l23 -21 0 24 c0 13 4 29 8 35 915 90 37 108 30 8 -3 37 -54 65 -112 27 -59 51 -105 54 -102 2 2 -12 54 -32114 -36 111 -39 160 -8 134 8 -6 54 -114 103 -238z m2130 184 c5 -38 -13 -55-34 -34 -11 11 -14 25 -10 43 9 36 40 30 44 -9z m-3793 -77 c27 -88 33 -14313 -137 -19 6 -57 126 -58 181 0 66 14 52 45 -44z m3706 31 c34 -45 49 -19318 -174 -12 7 -53 88 -69 137 -21 67 12 91 51 37z m-119 -37 c56 -64 138 -295163 -462 15 -100 11 -131 -12 -87 -27 51 -161 415 -178 481 -20 81 -9 109 2768z m-2443 -30 c62 -76 239 -473 249 -559 4 -36 1 -44 -17 -54 -43 -23 -63 -9-103 69 -69 136 -190 441 -203 514 -14 76 24 91 74 30z m-81 -128 c62 -148146 -367 165 -433 18 -59 8 -82 -33 -82 -36 0 -32 -8 -132 243 -95 240 -128332 -128 363 0 29 49 59 66 41 6 -7 34 -66 62 -132z m2502 -80 c124 -323 167-465 141 -465 -16 0 -35 43 -100 222 -75 208 -141 415 -141 441 0 46 29 -11100 -198z m-153 125 c54 -113 222 -620 204 -620 -23 0 -261 612 -261 672 0 3624 14 57 -52z m-2526 -17 c70 -101 201 -422 216 -531 5 -35 2 -45 -13 -57 -31-23 -60 -18 -89 18 l-26 32 5 -30 c3 -16 2 -36 -3 -44 -12 -19 -46 36 -106169 -112 250 -188 447 -180 467 7 19 28 6 58 -35 l24 -32 6 36 c13 81 54 83108 7z m-933 26 c1 -8 -4 -23 -12 -34 -14 -19 -16 -19 -32 -3 -17 17 -17 18 138 20 22 38 22 43 -1z m3336 -22 c35 -37 213 -456 243 -572 18 -65 18 -67 -1-81 -51 -37 -84 -1 -147 159 -92 236 -169 456 -169 485 0 53 29 57 74 9zm-2660 -30 c42 -55 150 -297 221 -497 33 -93 36 -140 9 -140 -30 0 -81 68-117 157 -156 383 -197 488 -197 500 0 8 12 13 29 13 22 0 37 -9 55 -33zm-3384 -10 c24 -19 60 -73 60 -91 0 -8 -12 -22 -27 -31 -26 -14 -23 -15 58 -979 6 88 5 107 -14 12 -12 29 -46 37 -77 15 -51 15 -58 1 -80 -8 -12 -40 -37-71 -55 -64 -37 -93 -72 -125 -153 -12 -32 -28 -56 -34 -54 -14 5 -42 79 -67177 -22 86 -26 276 -8 331 12 34 36 69 48 69 3 0 13 -6 21 -13z m3248 -12 c32-27 102 -174 203 -427 62 -155 71 -198 42 -198 -10 0 -33 -9 -51 -20 -18 -11-39 -20 -47 -20 -25 0 -74 77 -150 235 -87 179 -146 333 -148 389 -2 38 0 4133 53 54 18 86 15 118 -12z m2654 9 c20 -19 237 -559 245 -613 5 -28 3 -33-13 -29 -27 5 -74 88 -134 240 -73 184 -140 376 -140 399 0 23 17 25 42 3zm-2876 -48 c8 -14 41 -87 73 -163 83 -198 118 -275 268 -582 73 -151 130 -277127 -280 -9 -9 -68 63 -128 154 -85 128 -350 742 -370 858 -8 43 6 49 30 13zm-50 -127 c98 -218 204 -496 204 -535 0 -34 -22 -7 -68 84 -97 187 -212 495-212 564 0 47 13 28 76 -113z m-258 98 c25 -30 202 -474 202 -507 0 -22 -40-8 -60 20 -67 95 -193 442 -176 487 7 17 20 17 34 0z m111 -16 c30 -42 251-549 251 -576 0 -3 -7 -5 -17 -5 -52 0 -148 178 -227 423 -55 168 -57 229 -7158z m-255 -38 c14 -80 70 -251 103 -317 50 -99 128 -178 211 -212 67 -28 102-50 102 -65 0 -17 -45 -49 -79 -56 -31 -6 -26 -8 42 -14 42 -4 84 -12 92 -1912 -10 19 -10 27 -2 19 19 26 15 61 -40 43 -66 85 -105 165 -153 35 -20 85-52 112 -70 54 -36 123 -55 203 -55 70 0 124 -16 154 -46 31 -31 35 -30 22 2-16 44 0 42 39 -4 20 -23 40 -42 43 -42 3 0 4 13 1 29 -7 51 59 47 94 -6 24-38 4 -53 -73 -53 -35 0 -73 -5 -84 -10 -27 -15 -24 -47 5 -54 13 -3 54 -3691 -73 l68 -68 -42 62 c-22 34 -41 65 -41 68 0 9 83 45 105 45 21 0 71 -47116 -110 79 -108 249 -433 249 -474 0 -55 -34 -42 -129 48 -66 62 -69 61 -19-8 49 -69 34 -90 -82 -122 -69 -18 -98 -34 -64 -34 12 0 56 9 99 20 102 26105 26 152 -12 47 -38 244 -250 280 -302 45 -63 26 -74 -192 -106 -340 -52-490 -8 -807 232 -43 32 -78 63 -78 68 0 4 19 15 43 23 l42 15 -46 1 c-88 2-141 31 -274 151 -141 127 -366 354 -382 384 -15 28 -14 31 6 47 11 9 54 2393 29 141 24 142 28 7 23 -75 -3 -149 -3 -164 1 -15 4 -50 31 -76 59 l-49 5228 -52 c22 -44 25 -56 15 -72 -11 -18 -9 -20 26 -26 28 -5 45 -16 67 -45 17-21 134 -147 262 -281 127 -133 229 -246 225 -252 -4 -6 -51 -8 -132 -4 -1516 -220 27 -331 95 -171 107 -618 461 -597 474 6 4 33 10 59 13 67 9 60 25 -1025 -47 0 -67 6 -103 28 -50 33 -350 337 -412 419 -44 59 -43 81 4 94 13 4 1577 319 8 l295 1 68 -113 c123 -204 149 -216 37 -18 -39 69 -68 126 -66 128 2 268 17 147 33 l144 29 -100 0 c-55 1 -127 5 -160 11 -54 8 -64 14 -103 57 -4146 -43 46 -35 18 4 -16 7 -43 8 -59 0 -38 -15 -42 -214 -56 -236 -16 -377 4-473 67 -43 29 -148 178 -275 393 -97 164 -115 198 -109 209 12 18 125 22 44215 l330 -7 129 -249 c71 -137 131 -245 133 -240 1 5 -44 108 -101 228 -58 121-108 229 -111 241 -6 20 -1 24 51 39 76 22 263 52 334 53 l57 1 6 -37z m115-109 c45 -117 81 -229 81 -253 -1 -29 -60 97 -95 202 -64 195 -55 228 14 51zm2594 38 c39 -42 245 -535 250 -595 2 -26 -2 -33 -20 -35 -18 -3 -30 8 -56 50-72 112 -233 465 -244 534 -9 57 35 85 70 46z m-4883 -102 l0 -24 -16 22 c-913 -18 42 -20 65 l-4 42 20 -40 c11 -22 20 -51 20 -65z m4744 47 c36 -48 133-256 200 -429 31 -80 56 -151 56 -156 0 -20 -40 -24 -66 -7 -44 29 -285 571-271 609 11 28 54 19 81 -17z m-122 -58 c35 -44 219 -488 226 -546 3 -33 1-43 -10 -43 -36 0 -93 98 -218 374 -89 196 -101 233 -79 247 24 16 51 5 81-32z m-140 -51 c79 -137 245 -500 250 -546 3 -25 0 -27 -30 -25 -18 0 -40 7-49 15 -20 16 -138 260 -195 402 -23 58 -42 126 -45 159 -5 51 -4 57 14 57 130 30 -20 55 -62z m-122 -66 c21 -34 68 -132 105 -219 37 -87 80 -184 96 -21532 -64 36 -99 14 -118 -35 -29 -99 72 -224 351 -80 179 -100 242 -81 263 2025 51 3 90 -62z m-149 -18 c29 -27 69 -101 69 -127 0 -6 -16 4 -35 23 -22 22-35 29 -35 19 0 -8 47 -109 105 -224 58 -116 105 -222 105 -238 0 -32 -28 -47-91 -47 -31 0 -46 6 -66 28 -29 30 -222 420 -247 498 -9 28 -14 58 -10 67 923 59 37 122 33 42 -2 59 -9 83 -32z m-262 -46 c34 -34 124 -212 220 -432 34-77 61 -141 61 -143 0 -2 -14 -3 -30 -3 -41 0 -68 30 -135 150 -62 110 -205411 -205 432 0 40 49 37 89 -4z m-128 -45 c17 -27 73 -133 123 -238 145 -298157 -337 106 -343 -35 -4 -75 40 -152 169 -102 170 -179 329 -185 380 -5 40-2 48 18 63 38 26 57 20 90 -31z m-163 -81 c112 -174 287 -506 276 -523 -3 -5-18 -9 -34 -9 -53 0 -118 101 -257 402 -76 164 -87 208 -54 208 13 0 35 -2669 -78z m5387 37 c-32 -60 -238 -319 -255 -319 -15 0 38 162 66 201 41 59 176165 195 153 5 -3 2 -18 -6 -35z m-5487 -101 c76 -141 182 -363 232 -488 52-130 122 -282 224 -490 54 -110 82 -178 77 -183 -17 -17 -58 20 -95 85 -34 62-208 428 -236 498 -8 19 -28 54 -45 76 -74 97 -295 521 -295 566 0 19 36 4861 48 10 0 38 -40 77 -112z m-145 -45 c51 -100 146 -318 162 -370 7 -24 -1-28 -55 -23 -78 7 -157 99 -255 302 -51 105 -62 178 -25 178 24 0 55 -42 151-202 39 -66 74 -117 77 -113 3 3 -22 61 -57 128 -68 130 -93 191 -84 201 1818 36 -4 86 -101z m2594 99 c13 -8 33 -55 33 -79 0 -13 -3 -13 -16 -2 -17 14-44 62 -44 79 0 12 10 13 27 2z m-73 -35 c17 -18 44 -59 60 -91 33 -66 29 -76-37 -76 -47 0 -75 27 -100 96 -23 64 -22 83 6 94 34 14 37 12 71 -23z m-165-17 c24 -13 73 -125 79 -180 3 -35 0 -49 -13 -60 -15 -12 -19 -12 -31 5 -2230 -78 210 -71 229 7 19 12 19 36 6z m-2602 -27 c20 -22 183 -330 183 -347 0-11 -134 -17 -159 -7 -32 14 -75 77 -148 218 -61 119 -65 140 -25 149 15 3 327 37 9 6 2 27 4 48 4 29 1 44 -5 64 -26z m2518 -27 c17 -25 69 -172 80 -222 4-23 1 -36 -11 -49 -16 -16 -18 -15 -40 7 -26 26 -89 169 -100 224 -5 30 -3 4011 51 27 19 42 16 60 -11z m-2847 -43 c38 -55 66 -153 44 -153 -28 0 -82 99-82 151 0 36 13 37 38 2z m2708 10 c30 -31 92 -174 118 -277 19 -69 26 -12326 -185 -1 -105 -4 -100 -69 91 -27 79 -68 192 -91 252 -22 60 -39 115 -36122 7 19 31 17 52 -3z m3224 -20 c0 -41 -60 -181 -116 -274 -28 -47 -76 -106-111 -140 -125 -116 -489 -339 -555 -339 -16 0 -41 -12 -60 -29 -80 -70 -387-219 -732 -356 -236 -93 -349 -145 -328 -152 7 -3 54 11 105 31 50 19 114 42140 51 63 21 384 164 597 265 92 44 174 80 182 80 8 0 20 -12 27 -27 10 -2214 -24 22 -12 5 7 9 21 9 31 0 9 21 35 47 58 66 57 312 195 336 187 24 -8-363 -321 -413 -334 -14 -3 -40 -23 -57 -44 -86 -98 -646 -448 -701 -437 -9 2-19 14 -22 28 l-6 25 -17 -32 c-23 -44 -66 -74 -187 -132 -177 -83 -494 -186-755 -245 -235 -53 -485 -96 -558 -96 l-32 0 62 56 c51 45 65 65 78 107 8 2821 54 27 58 29 18 -4 15 -122 -12 -69 -15 -155 -31 -192 -35 -120 -12 -192 34-218 138 -32 126 28 178 316 273 214 71 359 106 389 95 14 -5 25 -14 25 -20 0-5 5 -10 10 -10 6 0 10 8 10 18 0 44 41 62 450 202 157 53 355 123 440 155165 62 232 76 246 54 4 -7 11 -29 15 -49 6 -32 7 -30 8 18 0 29 6 62 12 74 611 43 35 82 53 564 259 719 328 770 345 34 11 70 29 81 39 12 11 71 47 131 81130 72 542 280 555 280 6 0 10 -12 10 -27z m-3338 -14 c35 -19 145 -285 173-419 6 -31 5 -33 -8 -20 -9 8 -43 68 -77 132 -54 104 -80 143 -80 123 0 -3 28-66 61 -138 111 -239 122 -267 108 -283 -46 -55 -135 49 -253 296 -51 108 -75169 -90 232 -8 34 22 68 60 68 20 0 29 -9 46 -47 25 -57 37 -75 49 -67 5 2 027 -11 54 -11 27 -17 56 -14 65 7 18 9 18 36 4z m-265 -96 c65 -84 180 -303252 -483 29 -74 31 -90 8 -90 -43 0 -331 550 -313 597 9 22 23 15 53 -24zm-116 -60 c18 -26 99 -173 179 -327 81 -155 170 -318 197 -362 67 -111 79-140 63 -159 -31 -38 -74 -1 -133 115 -26 50 -47 102 -47 115 0 12 -20 50 -4483 -54 73 -113 176 -199 347 -79 158 -97 212 -76 226 22 14 26 12 60 -38zm-123 -63 c64 -105 226 -411 247 -466 13 -35 15 -48 5 -57 -9 -9 -18 -4 -3920 -72 86 -291 502 -291 554 0 50 27 32 78 -51z m-4110 -205 c29 -66 103 -235164 -375 246 -569 470 -1077 738 -1675 290 -648 505 -1131 522 -1175 6 -18 6-22 -1 -15 -61 61 -1518 3332 -1546 3473 -8 35 54 -81 123 -233z m3970 218c54 -78 266 -516 274 -568 2 -16 -3 -20 -27 -20 -43 0 -87 64 -210 308 -101201 -124 260 -111 292 9 25 53 18 74 -12z m-128 -99 c86 -132 250 -469 250-514 0 -10 -6 -23 -14 -29 -23 -19 -68 46 -175 259 -144 285 -170 360 -125360 8 0 37 -34 64 -76z m-222 15 c20 -7 44 -29 66 -64 54 -80 236 -454 243-498 3 -22 20 -55 39 -79 81 -96 244 -388 244 -436 0 -21 -7 -32 -25 -40 -14-7 -30 -12 -35 -12 -38 0 -301 436 -286 476 3 8 -14 33 -42 61 -81 81 -338527 -330 571 5 28 74 39 126 21z m-166 -79 c59 -68 313 -543 302 -562 -23 -37-114 47 -167 153 -20 41 -70 137 -112 214 -75 141 -108 218 -97 229 15 15 442 74 -34z m-145 -12 c17 -18 49 -62 70 -98 49 -81 243 -455 243 -468 0 -24-33 -20 -57 6 -65 70 -282 422 -319 518 -13 35 -14 47 -4 59 18 22 33 19 67-17z m-169 -14 c31 -21 85 -104 179 -274 45 -80 102 -181 127 -225 49 -85 55-118 20 -123 -32 -5 -104 73 -175 191 -85 141 -231 425 -224 437 9 15 48 1273 -6z m1658 -279 c9 -38 -3 -77 -24 -73 -17 3 -29 56 -18 84 9 23 35 16 42-11z m-139 -47 c59 -65 98 -213 42 -163 -17 16 -79 152 -79 174 0 17 15 13 37-11z m-231 -90 c49 -59 137 -252 142 -313 4 -53 3 -56 -34 -90 -41 -38 -74-51 -99 -41 -37 14 -229 358 -223 400 9 60 84 3 183 -140 65 -93 110 -138 126-128 17 10 9 35 -19 59 -28 23 -116 181 -132 234 -5 19 -4 33 3 40 17 17 2314 53 -21z m-271 -82 c35 -46 225 -422 225 -445 0 -26 -28 -34 -55 -17 -33 22-95 121 -174 280 -83 166 -87 179 -66 200 24 24 41 20 70 -18z m-378 -98 c45-49 249 -415 238 -426 -9 -9 -30 19 -127 169 -57 88 -116 180 -132 204 -40 61-24 101 21 53z m-16 -164 c97 -137 179 -273 179 -296 0 -29 -36 -22 -70 15-40 42 -138 185 -206 300 -50 85 -64 124 -47 141 11 11 66 -50 144 -160zm-199 43 c59 -102 147 -287 154 -327 l7 -35 -32 30 c-39 36 -179 244 -217 322l-28 56 23 18 c12 10 29 15 37 12 8 -3 33 -37 56 -76z m-367 -22 c104 -20 166-56 224 -129 69 -88 131 -198 131 -232 0 -2 -14 -11 -31 -20 l-32 -16 -59 59c-110 108 -328 353 -314 353 2 0 39 -7 81 -15z m-3585 -55 c0 -16 -4 -30 -10-30 -11 0 -14 43 -3 53 11 12 13 8 13 -23z m2619 -101 c24 -11 143 -90 265-177 184 -131 216 -158 195 -160 -57 -7 -297 92 -604 247 l-210 106 125 5c147 6 170 4 229 -21z m-1767 -424 c73 -164 149 -343 289 -685 9 -22 9 -23 -4-10 -8 8 -40 71 -71 139 -63 140 -82 167 -103 150 -10 -9 -13 -5 -13 23 0 49-34 148 -144 422 -144 356 -121 337 46 -39z m3831 253 c8 -18 25 -64 37 -10328 -88 54 -138 83 -165 12 -12 22 -29 22 -38 0 -15 17 -17 188 -14 122 3 1870 187 -6 0 -17 -139 -44 -257 -49 -134 -7 -113 -22 -261 196 -122 181 -128208 -46 210 26 1 34 -5 47 -31z m-182 -78 c47 -64 75 -120 60 -120 -9 0 -106136 -117 164 -13 35 16 13 57 -44z m-15 -150 c74 -125 53 -137 -37 -20 -72 92-130 190 -122 204 10 15 110 -100 159 -184z m-368 118 c18 -22 18 -52 1 -56-21 -4 -49 24 -49 49 0 22 32 26 48 7z m132 -60 c64 -91 68 -119 10 -78 -5842 -108 150 -69 150 5 0 31 -32 59 -72z m-254 -46 c198 -139 284 -204 284-215 0 -24 -452 48 -584 93 -88 29 -302 137 -292 147 10 11 343 71 397 72 561 58 0 195 -97z m12 70 c2 -12 -1 -22 -6 -22 -15 0 -34 28 -27 40 10 17 30 633 -18z m2635 8 c34 -27 71 -124 57 -150 -23 -44 -91 -54 -114 -17 -8 12 -2246 -32 75 -21 58 -15 78 27 99 31 16 32 16 62 -7z m-3235 -103 c34 -14 71 -3284 -41 22 -16 22 -16 -13 -16 -36 0 -219 56 -254 79 -38 23 116 5 183 -22zm1222 -37 c21 -21 26 -45 10 -55 -13 -8 -50 31 -50 55 0 11 5 20 10 20 6 0 19-9 30 -20z m-165 -150 c-3 -5 -24 -10 -46 -10 -21 0 -39 5 -39 10 0 6 21 1046 10 27 0 43 -4 39 -10z m2290 -81 c13 -21 36 -248 27 -265 -8 -14 -13 -12-40 11 -36 30 -132 169 -132 191 0 39 127 94 145 63z m-5585 -614 c322 -710484 -1105 453 -1105 -14 0 -50 62 -93 160 -95 218 -306 725 -419 1004 -179442 -159 422 59 -59z m26 90 c19 -28 12 -44 -10 -26 -17 14 -28 51 -15 51 5 016 -11 25 -25z m44 -104 c5 -11 10 -28 10 -37 0 -16 -2 -16 -14 -4 -19 20 -3060 -17 60 6 0 15 -9 21 -19z m2775 10 c26 -6 27 -8 10 -14 -32 -11 -222 -26-578 -47 -409 -24 -603 -41 -957 -86 -346 -43 -486 -66 -677 -109 -84 -19-157 -35 -162 -35 -12 0 -41 28 -41 40 0 18 140 48 577 120 422 69 754 991468 133 119 6 331 4 360 -2z m185 -21 c0 -5 -22 -10 -50 -10 -27 0 -50 5 -5010 0 6 23 10 50 10 28 0 50 -4 50 -10z m790 -10 c365 -14 520 -32 520 -61 0-20 -36 -20 -297 0 -147 11 -338 23 -423 26 -249 10 -441 24 -458 35 -23 13325 13 658 0z m789 -65 c331 -49 964 -200 987 -236 14 -23 -33 -18 -133 14-156 50 -511 126 -813 172 -187 29 -250 43 -250 56 0 14 91 11 209 -6z m-1985-12 c4 -9 1 -91 -5 -182 -9 -117 -9 -172 -2 -185 10 -18 11 -18 22 2 6 12 1593 20 181 8 152 21 218 36 180 7 -19 -11 -358 -21 -383 -9 -24 -70 -21 -83 3-6 11 -14 97 -18 193 l-7 173 -12 -77 c-20 -126 -35 -188 -45 -188 -22 0 1237 27 278 18 27 78 31 88 5z m156 -60 c0 -94 -19 -254 -32 -268 -12 -12 -7314 5 333 19 28 27 8 27 -65z m586 52 c12 -49 -1 -358 -17 -390 -25 -52 -44-39 -43 30 1 90 22 348 29 368 10 25 24 21 31 -8z m108 -115 c0 -74 -4 -175-8 -223 -7 -73 -11 -88 -24 -85 -25 5 -30 40 -31 231 -1 190 5 220 42 215 21-3 22 -7 21 -138z m224 68 c5 -61 -22 -311 -38 -354 -11 -28 -12 -28 -23 -9-15 26 -14 278 2 359 18 96 51 97 59 4z m-1448 7 c0 -87 -30 -339 -42 -350-14 -13 -4 316 12 368 16 54 30 46 30 -18z m71 -138 c-14 -178 -23 -228 -35-208 -26 41 -13 330 16 386 11 19 11 19 21 -4 8 -16 7 -69 -2 -174z m147 -12c0 -88 -3 -171 -7 -185 l-7 -25 -12 22 c-20 35 -26 169 -13 268 24 186 39 15639 -80z m768 179 c9 -36 -2 -293 -13 -323 -17 -44 -25 -4 -26 132 0 137 8 21724 217 5 0 12 -12 15 -26z m336 4 c16 -30 24 -352 9 -390 -11 -31 -32 -36 -50-14 -26 31 -22 374 4 416 10 16 23 12 37 -12z m214 -5 c8 -31 -10 -399 -21-425 -10 -26 -24 -22 -36 10 -14 34 -6 375 10 415 13 35 39 35 47 0z m-758-147 c-3 -94 -8 -150 -16 -158 -9 -9 -12 9 -12 78 0 133 11 247 23 235 6 -6 8-68 5 -155z m-1198 134 c0 -11 3 -20 6 -20 3 0 17 9 31 20 58 45 66 19 66-200 1 -156 -8 -200 -37 -200 -24 0 -37 27 -44 92 l-8 63 -7 -54 c-6 -54 -29-101 -48 -101 -5 0 -17 16 -25 35 -17 41 -19 226 -3 295 15 64 69 119 69 70zm346 -32 c-3 -29 -11 -107 -17 -173 -12 -137 -20 -165 -48 -165 -27 0 -39 44-49 170 l-8 105 -6 -126 c-8 -134 -18 -179 -42 -179 -29 0 -36 39 -43 229 l-6191 113 0 113 0 -7 -52z m1700 5 c10 -61 10 -293 0 -355 -8 -55 -18 -59 -43-21 -41 63 -19 423 26 423 5 0 13 -21 17 -47z m117 11 c11 -38 14 -315 3 -377-8 -54 -31 -71 -54 -41 -12 16 -13 48 -8 187 7 176 20 271 39 264 6 -2 15 -1720 -33z m102 -199 c0 -176 -6 -235 -24 -235 -16 0 -23 102 -19 267 3 162 11202 32 167 7 -12 11 -87 11 -199z m-2381 183 c17 -64 0 -338 -23 -361 -14 -14-32 26 -42 100 -9 67 2 208 21 258 12 31 36 32 44 3z m2464 -96 c2 -53 0 -113-6 -132 l-9 -35 -13 30 c-14 33 -19 209 -7 239 16 40 31 -4 35 -102z m-256513 c4 -49 6 -139 5 -200 l-3 -110 -60 -3 c-71 -3 -93 9 -105 58 l-8 35 -7 -33c-17 -74 -25 -34 -25 125 0 166 5 213 20 213 14 0 30 -61 31 -119 l1 -56 1372 c7 39 16 77 20 83 11 17 46 29 80 27 l30 -2 8 -90z m-243 -95 c0 -226 -3-229 -308 -300 -100 -23 -203 -48 -229 -56 -33 -10 -50 -11 -57 -4 -16 16 -15399 1 427 20 33 51 38 84 14 l29 -22 11 24 c23 50 81 59 93 14 3 -12 8 -65 13-117 l7 -95 8 83 c11 127 32 175 83 184 15 2 22 -5 30 -30 l11 -33 12 25 c1431 81 53 112 36 19 -10 20 -21 20 -175 0 -90 4 -166 9 -170 11 -6 18 54 25205 5 113 20 175 36 150 6 -8 10 -80 10 -160z m1019 75 c0 -33 -4 -69 -9 -80-6 -13 -9 15 -9 80 0 65 3 93 9 80 5 -11 9 -47 9 -80z m721 0 c0 -46 -4 -87-10 -90 -6 -4 -10 28 -10 90 0 62 4 94 10 90 6 -3 10 -44 10 -90z m1148 -145c0 -63 -3 -128 -7 -145 l-7 -30 -13 24 c-20 36 -26 185 -11 282 6 46 15 88 1894 10 15 20 -96 20 -225z m-1339 158 c-1 -50 -3 -57 -8 -32 -7 29 -4 94 5 942 0 4 -28 3 -62z m1419 -43 c0 -27 -4 -61 -8 -75 -5 -16 -8 8 -8 70 0 62 2 888 75 5 -11 8 -42 8 -70z m501 50 c12 -25 12 -54 3 -182 -13 -164 -26 -236 -48-254 -18 -15 -72 -2 -84 21 -14 27 -12 118 5 253 22 164 38 200 84 195 17 -231 -13 40 -33z m88 -112 c6 -105 -10 -301 -27 -333 -23 -43 -30 -17 -30 108 1136 15 326 26 344 14 22 25 -22 31 -119z m-2090 -20 c-2 -27 -3 -5 -3 47 0 521 74 3 48 2 -27 2 -69 0 -95z m2260 -62 c-5 -148 -19 -270 -34 -295 -23 -37-30 144 -13 331 9 105 23 149 42 137 7 -5 9 -58 5 -173z m-4369 -24 c4 -216-2 -277 -29 -277 -31 0 -39 40 -39 189 0 190 23 302 54 271 7 -7 12 -76 14-183z m4516 173 c47 -10 53 -19 62 -90 l8 -55 8 44 c9 54 28 76 57 66 30 -941 -35 57 -133 7 -46 16 -87 19 -90 3 -3 5 26 6 64 1 100 8 118 47 122 25 339 -3 62 -27 17 -16 30 -40 30 -53 0 -21 2 -20 20 10 22 36 35 39 88 16 20 -995 -36 166 -60 137 -46 156 -57 156 -84 0 -27 -82 -122 -178 -207 -154 -134-230 -162 -262 -98 -29 58 -30 58 -51 36 -25 -26 -50 -26 -151 0 -86 21 -16657 -187 83 -19 22 -31 20 -31 -6 0 -21 -1 -21 -17 -5 -23 23 -30 178 -14 32518 166 15 163 105 142z m-4635 -18 c15 -28 24 -191 14 -237 l-9 -40 -47 95c-26 52 -50 111 -53 132 -6 32 -3 38 22 52 39 20 61 20 73 -2z m4386 -369 c-3-24 -10 -43 -14 -43 -31 0 -26 273 7 405 9 37 16 -302 7 -362z m904 270 c64-25 188 -78 276 -118 l160 -73 7 -53 c17 -137 28 -368 28 -581 l0 -233 -58-46 c-69 -57 -161 -118 -221 -149 -81 -41 -166 -69 -182 -60 -11 7 -15 53 -20227 -3 132 -10 226 -16 238 -12 21 -12 22 -29 -61 -2 -12 -8 -103 -14 -204-10 -194 -22 -260 -45 -260 -8 0 -15 1 -16 3 -1 1 -7 112 -14 247 -12 238 -12246 7 267 26 29 126 81 163 85 29 3 30 2 37 -52 5 -30 6 -108 2 -172 -7 -1403 -261 19 -232 13 23 13 492 1 504 -5 5 -44 -7 -88 -26 -119 -53 -125 -36 -1130 156 91 198 120 271 188 83 77 132 152 141 213 6 44 4 47 -35 83 -52 48-191 121 -402 210 -209 88 -220 94 -220 103 0 12 131 -27 259 -78z m-2204-192 c345 -32 937 -112 1195 -162 265 -52 588 -137 820 -218 201 -70 181 -60164 -85 -21 -33 -86 -65 -278 -140 -223 -87 -411 -134 -811 -200 -247 -41-403 -55 -745 -67 -401 -14 -1603 -6 -1740 10 -261 32 -692 94 -748 106 -34 8-75 21 -90 29 -15 8 -63 19 -107 26 -197 29 -462 90 -501 115 -19 12 -20 18-11 53 10 36 7 46 -26 117 -21 42 -39 90 -42 105 -3 15 -16 47 -30 71 -29 52-31 63 -9 55 9 -4 24 0 33 8 53 48 410 132 655 155 106 10 171 -1 81 -14 -144-20 -269 -45 -278 -54 -22 -22 6 -24 96 -8 109 21 265 36 362 37 83 0 142 15172 42 12 11 45 24 75 28 77 12 1618 4 1763 -9z m-4379 -2 c3 -6 -1 -18 -9-27 -13 -12 -19 -13 -31 -3 -8 7 -12 19 -9 27 6 17 39 19 49 3z m6764 -19c-23 -32 -39 -45 -46 -37 -7 6 45 67 58 67 5 0 0 -13 -12 -30z m-5971 -434c25 -18 51 -47 61 -69 17 -38 18 -38 24 -13 8 32 24 33 84 2 27 -13 74 -31107 -40 96 -25 99 -31 107 -214 3 -86 7 -186 8 -222 3 -106 16 -33 24 133 481 9 162 13 178 14 71 95 56 108 -20 8 -47 -11 -289 -28 -358 -11 -44 -15 -48-44 -51 -73 -7 -456 157 -517 221 -17 19 -44 37 -59 41 -17 4 -27 13 -27 25 012 -11 23 -30 30 -27 9 -30 14 -30 53 0 24 -9 111 -20 193 -11 83 -23 174 -26202 l-7 53 104 -56 c57 -31 124 -71 148 -88z m5621 -161 c0 -4 -33 -21 -72-40 -77 -36 -158 -59 -158 -44 0 12 55 39 135 65 72 24 95 28 95 19z m-4739-75 c168 -57 853 -178 1244 -220 142 -15 234 -30 240 -40 8 -13 -99 -24 -153-16 -26 4 -130 18 -232 31 -213 29 -387 58 -725 121 -395 74 -560 122 -539156 8 13 62 3 165 -32z m4704 -75 c11 -101 2 -422 -12 -436 -22 -22 -28 21-28 216 0 189 8 285 25 285 5 0 12 -29 15 -65z m-4915 30 c5 -14 7 -102 3-208 -6 -171 -2 -229 14 -214 3 4 11 89 18 191 9 144 16 191 29 212 33 49 4116 44 -178 2 -99 1 -205 -3 -234 -6 -53 -7 -54 -40 -54 -18 0 -63 9 -100 21l-67 20 4 217 c2 119 8 225 12 235 5 11 20 17 42 17 27 0 36 -5 44 -25z m4835-248 c0 -122 -4 -231 -9 -242 -8 -19 -8 -19 -17 3 -14 37 -32 299 -26 389 695 12 112 36 89 14 -15 16 -47 16 -239z m-4625 172 c17 -61 -13 -381 -40 -429-17 -31 -21 60 -11 245 12 197 17 238 32 229 5 -2 13 -23 19 -45z m4543 -9c12 -80 4 -411 -10 -435 -11 -19 -12 -19 -23 10 -9 21 -10 79 -6 195 6 166 -2260 -18 213 -4 -13 -11 -114 -15 -227 -8 -205 -13 -238 -34 -217 -16 16 -22362 -7 434 13 63 38 90 80 85 22 -3 26 -9 33 -58z m-303 45 c0 -13 -64 -35-101 -35 -52 0 -46 7 18 25 51 14 83 18 83 10z m-4155 -208 c-1 -165 -10 -257-25 -257 -14 0 -23 148 -17 281 7 137 13 167 31 149 7 -7 11 -67 11 -173z m81106 c12 -81 -8 -353 -27 -353 -21 0 -24 330 -3 384 11 29 23 17 30 -31z m74-55 c0 -105 -20 -319 -32 -338 -10 -17 -3 357 8 402 12 50 24 18 24 -64zm3615 82 c22 -6 12 -8 -40 -8 -49 0 -62 2 -45 8 31 10 46 10 85 0z m440 -12c10 -35 18 -328 11 -400 -8 -76 -19 -99 -38 -80 -10 10 -13 63 -12 220 1 2057 282 23 282 5 0 12 -10 16 -22z m-95 -234 c0 -182 -11 -287 -30 -299 -47 -29-54 384 -10 501 11 28 12 28 26 10 11 -16 14 -61 14 -212z m-130 -3 c0 -260-17 -349 -58 -308 -15 16 -17 38 -16 175 1 159 17 306 36 330 8 9 14 9 24 111 -9 14 -52 14 -198z m-567 192 c-18 -2 -48 -2 -65 0 -18 2 -4 4 32 4 36 050 -2 33 -4z m867 -137 c0 -154 -7 -217 -21 -194 -10 15 -12 245 -3 301 13 7924 31 24 -107z m-3738 80 c11 -77 -6 -401 -21 -420 -17 -21 -89 -21 -119 0-19 13 -22 24 -22 83 0 118 42 321 76 369 12 17 24 22 47 20 30 -3 32 -6 39-52z m-335 -93 c-2 -27 -3 -5 -3 47 0 52 1 74 3 48 2 -27 2 -69 0 -95z m2911118 c9 -5 1 -10 -25 -14 -159 -26 -1081 -43 -1103 -21 -15 15 97 21 580 32499 12 534 13 548 3z m567 -214 c0 -189 -8 -287 -24 -287 -13 0 -21 52 -31195 -5 72 -10 132 -12 135 -1 3 -5 -78 -8 -180 l-5 -185 -155 -12 c-85 -6-212 -12 -282 -12 -115 -1 -130 1 -148 19 -26 26 -30 25 -30 -4 0 -14 -6 -28-12 -32 -7 -5 -67 -12 -133 -16 -66 -4 -129 -9 -140 -10 -15 -2 -27 12 -52 62l-32 65 -1 -50 c0 -92 -51 -121 -120 -70 l-33 25 -11 -23 c-15 -28 -48 -33-71 -10 -16 16 -17 32 -11 178 9 210 21 295 46 320 16 15 24 17 37 9 24 -1531 -45 33 -154 3 -90 3 -92 10 -40 5 30 8 87 9 126 l1 71 158 7 c86 4 301 20477 37 353 32 426 35 455 17 17 -11 23 -9 42 10 15 15 25 19 33 11 6 -6 10-83 10 -202z m-3045 153 c0 -27 -4 -50 -10 -50 -5 0 -10 23 -10 50 0 28 5 5010 50 6 0 10 -22 10 -50z m983 37 c-29 -7 -57 -7 -85 0 -40 10 -37 11 42 1179 0 82 -1 43 -11z m227 3 c0 -5 -16 -10 -36 -10 -21 0 -33 4 -29 10 3 6 1910 36 10 16 0 29 -4 29 -10z m-1053 -195 c-5 -150 -12 -195 -28 -195 -12 0-11 81 1 216 22 232 35 222 27 -21z m3068 -40 c0 -151 -3 -217 -12 -226 -20-20 -28 51 -28 236 0 181 7 237 28 216 9 -9 12 -73 12 -226z m-2961 171 c20-78 -24 -426 -54 -426 -14 0 -22 39 -16 73 3 18 10 102 16 187 12 180 18 21233 207 7 -2 16 -20 21 -41z m83 -148 c-5 -187 -20 -294 -39 -282 -23 14 16464 39 464 3 0 3 -82 0 -182z m103 32 c0 -116 -23 -307 -39 -323 -17 -17 -2179 -11 228 14 201 23 252 41 224 5 -8 9 -66 9 -129z m141 124 c28 -33 0 -395-36 -464 -18 -35 -26 -37 -50 -10 -16 18 -17 34 -12 162 5 140 29 291 49 31614 16 33 15 49 -4z m-515 -194 c-6 -160 -12 -210 -27 -210 -24 0 -24 324 1385 l12 30 10 -25 c6 -15 8 -85 4 -180z m663 183 l24 -16 -6 -210 c-8 -233-14 -257 -66 -257 -49 0 -54 16 -52 181 2 170 14 283 31 304 16 20 40 19 69-2z m126 0 c4 -10 11 -103 16 -208 9 -203 15 -255 28 -255 15 0 21 52 27 2404 102 11 193 16 203 7 14 19 17 56 15 40 -3 47 -7 53 -28 18 -64 7 -476 -13-496 -4 -4 -175 19 -236 32 l-23 5 6 142 c7 165 22 345 30 358 10 15 32 10 40-8z m361 -29 c4 -14 1 -105 -5 -202 -15 -230 -20 -274 -33 -289 -16 -20 -66-16 -78 6 -23 45 -5 407 25 478 12 28 19 33 49 33 30 0 37 -4 42 -26z m122 14c25 -25 9 -383 -20 -474 -16 -46 -48 -54 -59 -14 -21 76 0 452 27 482 20 2135 23 52 6z m178 -15 c9 -34 -3 -374 -15 -432 -13 -65 -69 -95 -102 -55 -1821 -25 304 -11 398 15 92 31 116 82 116 35 0 40 -3 46 -27z m154 8 c6 -12 10-106 10 -238 0 -253 -3 -266 -66 -271 -68 -5 -69 0 -69 248 0 264 1 266 102279 7 0 17 -8 23 -18z m1439 -221 c-4 -63 -6 -43 -6 80 0 117 2 142 6 85 3-44 3 -118 0 -165z m-3152 -42 c-2 -24 -4 -5 -4 42 0 47 2 66 4 43 2 -24 2-62 0 -85z"/><path d="M5433 11566 c-62 -29 -133 -76 -115 -76 7 0 45 16 85 36 110 54 13789 30 40z"/><path d="M5286 11250 c8 -32 29 -55 38 -42 3 6 -5 23 -19 39 l-26 28 7 -25z"/><path d="M4542 10533 c2 -12 12 -18 28 -18 16 0 26 6 28 18 3 13 -3 17 -28 17-25 0 -31 -4 -28 -17z"/><path d="M4585 10430 c-3 -11 -2 -28 4 -37 8 -15 10 -11 11 20 0 41 -5 47 -1517z"/><path d="M5836 10307 c14 -32 24 -60 23 -61 -11 -10 -113 -57 -359 -166 -290-129 -373 -169 -352 -170 18 0 165 58 417 165 121 51 247 104 280 116 48 17145 74 145 84 0 2 -20 0 -44 -2 -42 -5 -46 -3 -91 43 l-46 49 27 -58z"/><path d="M6110 10338 c-19 -11 -30 -23 -23 -25 11 -4 93 33 93 42 0 12 -38 3-70 -17z"/><path d="M4625 10263 c8 -32 34 -143 59 -248 25 -104 46 -204 46 -220 0 -5449 -99 64 -59 11 28 6 49 -19 86 -14 21 -30 60 -35 88 -15 77 -37 164 -77 293-38 122 -61 159 -38 60z"/><path d="M5954 10103 c42 -79 85 -136 86 -113 0 21 -98 180 -111 180 -6 0 6-30 25 -67z"/><path d="M6060 9925 c0 -4 36 -83 80 -175 44 -91 83 -180 86 -197 6 -30 3 -33-47 -62 -30 -17 -128 -63 -218 -103 -90 -40 -160 -73 -155 -75 5 -2 104 28219 67 115 38 218 70 227 70 14 0 44 -53 122 -212 111 -226 218 -465 229 -5107 -25 2 -28 -81 -71 -48 -24 -190 -88 -317 -142 -318 -134 -436 -187 -431-192 5 -6 106 31 411 149 127 50 283 109 347 132 l116 43 68 -141 c37 -78 112-238 166 -356 92 -200 131 -273 113 -210 -4 14 -72 172 -151 352 -79 179 -146337 -149 350 -8 32 8 42 151 101 283 117 704 325 663 327 -4 0 -94 -40 -201-89 -320 -147 -588 -247 -640 -239 -18 2 -35 28 -85 128 -77 154 -249 537-259 574 -9 38 11 56 121 106 52 24 95 46 95 51 0 4 -30 -1 -67 -12 -147 -43-196 -54 -200 -44 -2 6 -46 90 -97 189 -88 166 -116 213 -116 191z"/><path d="M3810 9729 c0 -45 16 -83 31 -74 15 10 10 82 -7 99 -22 23 -24 21-24 -25z"/><path d="M4606 9729 c-15 -12 -25 -23 -22 -26 8 -8 67 28 61 37 -8 13 -8 13-39 -11z"/><path d="M3830 9528 c0 -12 -10 -32 -22 -45 l-21 -23 36 0 c38 0 72 24 61 43-13 22 -37 47 -46 47 -4 0 -8 -10 -8 -22z"/><path d="M4850 9469 c0 -17 4 -28 10 -24 6 3 10 17 10 31 0 13 -4 24 -10 24-5 0 -10 -14 -10 -31z"/><path d="M4880 9386 c0 -3 20 -74 44 -158 62 -216 61 -210 34 -235 -13 -12-53 -36 -88 -52 -75 -34 -65 -38 36 -15 83 20 104 15 105 -23 l1 -28 11 30c26 65 39 76 155 132 64 31 112 58 106 60 -6 2 -58 -12 -114 -32 -57 -19 -111-35 -120 -35 -22 0 -55 69 -111 232 -24 71 -47 128 -51 128 -5 0 -8 -2 -8 -4z"/><path d="M3860 9265 c0 -19 5 -35 10 -35 6 0 10 16 10 35 0 19 -4 35 -10 35-5 0 -10 -16 -10 -35z"/><path d="M5635 9252 c-186 -71 -336 -142 -298 -142 9 0 233 90 351 140 28 1352 27 52 31 0 11 12 14 -105 -29z"/><path d="M2980 8895 c0 -19 5 -35 10 -35 6 0 10 16 10 35 0 19 -4 35 -10 35-5 0 -10 -16 -10 -35z"/><path d="M5044 8790 c5 -45 45 -150 56 -150 11 0 -13 83 -41 142 l-19 43 4-35z"/><path d="M3011 8600 c0 -37 2 -41 9 -22 6 13 6 31 0 45 -7 18 -9 14 -9 -23z"/><path d="M3957 8623 c-11 -11 -7 -56 7 -82 l13 -23 6 23 c10 38 8 66 -6 78 -86 -17 8 -20 4z"/><path d="M5151 8481 c-1 -41 19 -111 31 -111 12 0 1 74 -17 115 l-13 30 -1-34z"/><path d="M3035 8403 c12 -92 26 -153 37 -159 13 -8 5 89 -13 161 -15 60 -3258 -24 -2z"/><path d="M4003 8385 c0 -22 2 -30 4 -17 2 12 2 30 0 40 -3 9 -5 -1 -4 -23z"/><path d="M5605 8256 c-27 -13 -59 -31 -70 -40 -20 -17 -19 -17 5 -10 35 9 12056 120 66 0 11 2 11 -55 -16z"/><path d="M5439 8186 c-42 -15 -103 -56 -95 -63 7 -8 111 44 126 62 15 18 1518 -31 1z"/><path d="M5250 8140 c0 -43 13 -65 34 -57 23 9 20 32 -9 64 l-24 28 -1 -35z"/><path d="M7812 8135 c-81 -31 -202 -95 -202 -106 0 -18 213 75 265 115 28 2210 19 -63 -9z"/><path d="M3091 8010 c1 -42 1 -43 10 -18 7 18 7 33 0 45 -8 14 -10 9 -10 -27z"/><path d="M7426 7955 c-131 -60 -266 -134 -266 -147 0 -11 36 4 208 91 233 119268 152 58 56z"/><path d="M4083 7960 c0 -25 2 -35 4 -22 2 12 2 32 0 45 -2 12 -4 2 -4 -23z"/><path d="M5340 7922 c0 -31 24 -71 36 -60 9 10 -14 88 -26 88 -6 0 -10 -13-10 -28z"/><path d="M4100 7840 c0 -16 5 -30 10 -30 6 0 10 14 10 30 0 17 -4 30 -10 30-5 0 -10 -13 -10 -30z"/><path d="M4120 7730 c-11 -27 -11 -34 3 -48 23 -22 39 -4 35 38 -4 44 -22 48-38 10z"/><path d="M2955 7706 c-46 -46 2 -81 72 -55 49 19 64 44 38 63 -31 24 -82 20-110 -8z"/><path d="M5420 7700 c5 -19 13 -51 18 -70 l10 -35 1 46 c1 33 -5 54 -19 70l-19 24 9 -35z"/><path d="M2163 7645 c0 -44 2 -61 4 -37 2 23 2 59 0 80 -2 20 -4 1 -4 -43z"/><path d="M6838 7675 c-2 -3 -47 -14 -99 -24 -53 -11 -106 -24 -120 -29 -104-42 -170 -70 -437 -189 -309 -137 -519 -223 -544 -223 -16 0 -102 -53 -112-68 -4 -6 8 -8 33 -5 36 5 41 3 58 -28 l18 -34 3 38 c5 61 0 59 702 336 448176 486 192 515 215 16 12 17 15 4 16 -9 0 -18 -2 -21 -5z"/><path d="M5470 7534 c0 -19 49 -164 70 -202 31 -59 25 -7 -11 91 -28 80 -58135 -59 111z"/><path d="M2180 7425 c0 -35 4 -54 10 -50 6 3 10 26 10 50 0 24 -4 47 -10 50-6 4 -10 -15 -10 -50z"/><path d="M5343 7084 c-28 -14 -44 -34 -28 -34 14 0 73 29 79 39 10 16 -14 13-51 -5z"/><path d="M5680 6948 c0 -20 47 -115 60 -123 16 -10 6 23 -26 88 -25 47 -34 57-34 35z"/><path d="M3730 11658 c0 -25 3 -29 10 -18 13 20 13 50 0 50 -5 0 -10 -15 -10-32z"/><path d="M3202 11333 c-28 -78 -35 -103 -27 -103 7 0 40 76 54 124 15 58 -541 -27 -21z"/><path d="M8573 10653 c-17 -6 -17 -28 0 -41 17 -14 40 1 35 23 -3 20 -16 26-35 18z"/><path d="M8780 10353 c0 -14 52 -93 61 -93 6 0 -2 23 -17 50 -24 44 -44 64-44 43z"/><path d="M8886 10183 c15 -21 29 -40 31 -42 2 -2 6 -1 9 2 9 8 -43 77 -58 77-6 0 2 -17 18 -37z"/><path d="M2435 10617 c-22 -42 -16 -74 7 -37 21 33 32 70 20 70 -5 0 -17 -15-27 -33z"/><path d="M2381 10478 c-24 -48 -18 -64 9 -28 17 22 28 70 16 70 -2 0 -13 -19-25 -42z"/><path d="M2450 10315 c-11 -29 -30 -140 -29 -170 0 -29 49 103 56 153 6 48-11 59 -27 17z"/><path d="M2202 10295 c-7 -14 -15 -45 -18 -68 -10 -62 15 -34 31 37 14 58 774 -13 31z"/><path d="M2658 10029 c-22 -12 -23 -32 -4 -48 11 -10 17 -7 30 11 29 41 15 61-26 37z"/><path d="M2562 10018 c-19 -19 -14 -30 10 -26 13 2 24 11 26 21 4 20 -18 23-36 5z"/><path d="M2630 9870 c0 -16 5 -30 10 -30 6 0 10 14 10 30 0 17 -4 30 -10 30-5 0 -10 -13 -10 -30z"/><path d="M2340 9843 c0 -28 3 -34 10 -23 13 20 13 47 0 55 -6 4 -10 -9 -10-32z"/><path d="M2797 9769 c-3 -12 -2 -31 3 -42 7 -18 9 -14 9 21 1 46 -4 54 -12 21z"/><path d="M2420 9695 c0 -22 4 -34 10 -30 6 3 10 17 10 30 0 13 -4 27 -10 30-6 4 -10 -8 -10 -30z"/><path d="M2530 9688 c0 -21 2 -38 4 -38 9 0 12 50 5 62 -6 8 -9 -1 -9 -24z"/><path d="M2691 9500 c0 -33 1 -34 10 -11 6 16 6 28 -1 35 -7 7 -10 -1 -9 -24z"/><path d="M2660 9285 c-12 -30 -13 -96 -3 -185 9 -87 21 -51 29 89 5 77 4 110-5 115 -6 4 -15 -3 -21 -19z"/><path d="M2740 9260 c0 -20 5 -30 15 -30 21 0 30 27 15 45 -19 23 -30 18 -30-15z"/><path d="M2740 9094 c0 -27 4 -43 10 -39 6 3 10 24 10 46 0 21 -4 39 -10 39-5 0 -10 -21 -10 -46z"/><path d="M2745 8718 c-3 -24 -1 -56 4 -73 8 -25 9 -18 10 43 1 81 -5 93 -1430z"/><path d="M8860 9584 c0 -4 12 -29 28 -57 18 -34 28 -45 30 -33 2 10 -8 35 -2257 -25 37 -36 47 -36 33z"/><path d="M8980 9377 c0 -21 87 -157 102 -157 5 0 -3 22 -18 49 -30 52 -83 121-84 108z"/><path d="M7630 9287 c0 -18 25 -57 37 -57 10 0 11 5 4 18 -11 20 -41 48 -4139z"/><path d="M7920 9136 c0 -8 9 -24 20 -37 17 -21 19 -22 20 -6 0 23 -18 57 -3057 -6 0 -10 -6 -10 -14z"/><path d="M2105 8596 c-4 -29 -3 -78 3 -107 9 -51 10 -48 11 54 0 59 -1 107 -3107 -3 0 -8 -24 -11 -54z"/><path d="M9820 7051 c0 -28 5 -51 10 -51 6 0 10 20 10 44 0 25 -4 48 -10 51-6 4 -10 -13 -10 -44z"/><path d="M8910 6455 c0 -25 5 -45 10 -45 6 0 10 20 10 45 0 25 -4 45 -10 45-5 0 -10 -20 -10 -45z"/><path d="M8941 6300 c0 -37 2 -41 9 -22 6 13 6 31 0 45 -7 18 -9 14 -9 -23z"/><path d="M8973 6130 c0 -36 2 -50 4 -32 2 17 2 47 0 65 -2 17 -4 3 -4 -33z"/><path d="M7680 5920 c0 -16 5 -30 10 -30 6 0 10 14 10 30 0 17 -4 30 -10 30-5 0 -10 -13 -10 -30z"/><path d="M7760 5653 c0 -10 9 -36 19 -58 16 -32 20 -36 20 -17 1 24 -24 92-33 92 -4 0 -6 -8 -6 -17z"/><path d="M3755 6607 c-8 -18 19 -102 36 -112 16 -10 9 48 -10 90 -15 33 -2037 -26 22z"/><path d="M4510 6332 c0 -33 76 -209 86 -199 6 6 -33 120 -58 170 -18 36 -2846 -28 29z"/><path d="M4027 6278 c7 -37 69 -217 78 -226 24 -25 -11 111 -56 212 -24 54-31 58 -22 14z"/><path d="M4214 6160 c8 -41 36 -77 36 -45 0 11 -10 34 -21 50 l-21 30 6 -35z"/><path d="M4260 6050 c0 -25 33 -91 42 -82 6 6 2 25 -11 51 -21 40 -31 51 -3131z"/><path d="M3520 6535 c0 -14 21 -45 31 -45 18 0 5 45 -13 48 -10 2 -18 1 -18-3z"/><path d="M3574 6433 c4 -9 10 -36 13 -60 3 -23 10 -40 14 -37 14 8 11 52 -684 -17 32 -31 41 -21 13z"/><path d="M3357 6423 c-11 -10 -8 -53 3 -53 6 0 10 14 10 30 0 31 -2 35 -13 23z"/><path d="M9020 5715 c0 -49 3 -65 10 -55 5 8 10 33 10 55 0 22 -5 47 -10 55-7 10 -10 -6 -10 -55z"/><path d="M7920 5021 c0 -17 5 -33 10 -36 6 -4 10 8 10 29 0 20 -4 36 -10 36-5 0 -10 -13 -10 -29z"/><path d="M8450 4934 c-109 -57 -145 -82 -100 -69 36 10 199 97 212 112 19 23-4 14 -112 -43z"/><path d="M7950 4885 c0 -22 4 -34 10 -30 6 3 10 17 10 30 0 13 -4 27 -10 30-6 4 -10 -8 -10 -30z"/><path d="M8242 4844 c-27 -18 -29 -34 -4 -34 21 0 42 18 42 37 0 17 -11 16-38 -3z"/><path d="M8073 4779 c-45 -10 -99 -29 -120 -43 -21 -14 -156 -75 -299 -135-143 -60 -278 -118 -300 -130 l-39 -22 34 6 c19 3 167 59 330 124 163 65 300115 304 111 5 -4 14 -29 22 -56 12 -45 13 -46 14 -16 2 57 27 100 77 131 2617 52 32 58 34 6 2 9 6 6 9 -3 3 -42 -3 -87 -13z"/><path d="M8030 4498 c0 -25 3 -29 10 -18 13 20 13 50 0 50 -5 0 -10 -15 -10-32z"/><path d="M6294 5914 c11 -45 56 -138 63 -131 8 8 -45 144 -59 153 -7 5 -9 -3-4 -22z"/><path d="M6110 5802 c0 -43 36 -172 69 -244 28 -64 51 -93 51 -66 1 22 -105338 -112 338 -5 0 -8 -13 -8 -28z"/><path d="M6000 5665 c0 -9 8 -30 17 -48 13 -24 18 -28 21 -15 3 16 -23 78 -3378 -3 0 -5 -7 -5 -15z"/><path d="M6266 5338 c50 -183 124 -388 124 -340 0 20 -57 222 -88 312 -39 112-43 120 -52 120 -5 0 3 -42 16 -92z"/><path d="M6240 5057 c0 -22 27 -87 36 -87 10 0 -4 59 -21 83 -13 18 -15 19-15 4z"/><path d="M1320 5005 c0 -15 34 -85 41 -85 13 0 11 15 -8 55 -14 30 -33 47 -3330z"/><path d="M1380 4869 c0 -27 21 -79 32 -79 13 0 2 46 -18 74 -11 16 -14 17 -145z"/><path d="M1436 4720 c10 -39 55 -123 61 -116 9 8 -24 87 -48 116 l-20 25 7-25z"/><path d="M1200 4661 c0 -14 118 -439 258 -931 72 -250 142 -501 157 -557 16-57 32 -103 37 -103 5 0 7 8 5 18 -3 9 -11 42 -17 72 -28 125 -327 1181 -4051428 -23 74 -35 98 -35 73z"/><path d="M1566 4399 c56 -154 143 -349 144 -322 1 31 -150 393 -164 393 -3 06 -32 20 -71z"/><path d="M1273 4176 c6 -36 25 -71 34 -62 7 7 -17 85 -29 92 -8 5 -9 -4 -5-30z"/><path d="M1760 3922 c0 -41 74 -212 86 -199 6 6 -41 139 -64 182 -18 34 -2136 -22 17z"/><path d="M1860 3669 c0 -27 21 -79 32 -79 13 0 2 46 -18 74 -11 16 -14 17 -145z"/><path d="M1910 3530 c0 -21 32 -80 41 -75 10 7 -8 60 -27 76 -11 9 -14 9 -14-1z"/><path d="M1485 3439 c-4 -12 -2 -26 4 -32 8 -8 11 -2 11 21 0 37 -6 41 -15 11z"/><path d="M1960 3405 c0 -15 34 -85 41 -85 13 0 11 15 -8 55 -14 30 -33 47 -3330z"/><path d="M1860 3341 c0 -20 30 -84 36 -78 9 9 -6 65 -22 78 -10 8 -14 8 -14 0z"/><path d="M2020 3261 c0 -20 30 -84 36 -78 9 9 -6 65 -22 78 -10 8 -14 8 -14 0z"/><path d="M1944 3140 c8 -41 36 -77 36 -45 0 11 -10 34 -21 50 l-21 30 6 -35z"/><path d="M2070 3130 c0 -19 31 -80 41 -80 12 0 11 5 -5 44 -14 35 -36 56 -3636z"/><path d="M2020 2965 c0 -9 8 -30 17 -48 13 -24 18 -28 21 -15 3 16 -23 78 -3378 -3 0 -5 -7 -5 -15z"/><path d="M2180 2861 c0 -20 30 -84 36 -78 9 9 -6 65 -22 78 -10 8 -14 8 -14 0z"/><path d="M2080 2813 c26 -87 69 -183 82 -183 4 0 -3 28 -16 63 -38 102 -88192 -66 120z"/><path d="M2230 2730 c0 -21 29 -80 39 -80 14 0 14 4 -3 44 -14 34 -36 56 -3636z"/><path d="M2290 2589 c0 -19 39 -119 68 -174 31 -58 27 -26 -8 63 -36 90 -59134 -60 111z"/><path d="M2180 2565 c0 -9 8 -30 17 -48 13 -24 18 -28 21 -15 3 16 -23 78 -3378 -3 0 -5 -7 -5 -15z"/><path d="M2230 2440 c0 -21 29 -80 39 -80 15 0 14 5 -9 50 -20 40 -30 49 -3030z"/><path d="M2292 2278 c12 -38 38 -71 38 -49 0 19 -31 81 -41 81 -4 0 -3 -15 3-32z"/><path d="M4727 5715 c8 -25 19 -45 24 -45 13 0 11 18 -7 56 -24 49 -35 42 -17-11z"/><path d="M4965 5598 c13 -44 79 -171 83 -160 4 12 -28 104 -53 153 -18 34 -3939 -30 7z"/><path d="M4800 5525 c0 -20 22 -65 32 -65 12 0 10 18 -7 50 -17 33 -25 38 -2515z"/><path d="M4850 5403 c0 -17 36 -95 54 -118 24 -32 19 1 -10 59 -27 55 -44 77-44 59z"/><path d="M4150 5515 c0 -15 34 -85 41 -85 13 0 11 15 -8 55 -14 30 -33 47 -3330z"/><path d="M4224 5333 c12 -50 39 -113 48 -113 11 0 1 42 -23 98 -20 47 -35 56-25 15z"/><path d="M3230 4413 c0 -10 52 -63 62 -63 4 0 5 6 2 13 -6 16 -64 61 -64 50z"/><path d="M4075 4264 c-221 -31 -275 -45 -143 -39 95 5 289 39 318 56 18 10 3212 -175 -17z"/><path d="M4590 4099 c0 -16 42 -89 52 -89 13 0 10 10 -17 57 -26 44 -35 52-35 32z"/><path d="M4326 3604 c-44 -8 -82 -17 -85 -21 -10 -10 209 7 274 22 l60 13 -850 c-47 0 -121 -6 -164 -14z"/><path d="M4240 4637 c0 -17 21 -57 30 -57 17 0 11 26 -10 45 -11 10 -20 15-20 12z"/><path d="M8967 4203 c-11 -10 -8 -53 3 -53 6 0 10 14 10 30 0 31 -2 35 -13 23z"/><path d="M7670 3479 c-171 -59 -355 -144 -228 -105 108 33 348 124 348 132 010 -40 1 -120 -27z"/><path d="M7000 3484 c0 -6 12 -39 26 -75 15 -36 26 -82 26 -105 -1 -37 2 -4327 -54 16 -6 49 -40 75 -76 69 -96 86 -84 23 18 -16 26 -27 56 -25 65 2 13 3228 100 52 54 18 95 37 92 42 -3 6 -13 8 -22 6 -10 -3 -54 -15 -100 -27 -104-29 -118 -23 -159 61 -33 68 -62 111 -63 93z"/><path d="M6925 3240 c-11 -5 -42 -18 -69 -30 -27 -11 -46 -23 -43 -26 7 -7120 30 157 51 l25 14 -25 0 c-14 0 -34 -4 -45 -9z"/><path d="M4424 1936 c-3 -14 -1 -33 5 -43 8 -15 10 -10 11 25 0 47 -6 55 -1618z"/><path d="M4137 1913 c-11 -10 -8 -151 3 -158 6 -4 10 25 10 79 0 86 -1 92 -1379z"/><path d="M7790 1730 c0 -32 4 -49 10 -45 6 3 10 24 10 45 0 21 -4 42 -10 45-6 4 -10 -13 -10 -45z"/><path d="M8174 1575 c0 -49 1 -71 3 -48 2 23 2 64 0 90 -2 26 -3 8 -3 -42z"/><path d="M8323 1534 c-3 -8 -1 -25 5 -37 10 -20 11 -18 11 16 1 39 -5 48 -1621z"/><path d="M8866 1328 c-20 -28 -20 -38 -3 -38 19 0 50 37 42 49 -10 17 -22 13-39 -11z"/><path d="M8695 1184 c-63 -38 -105 -72 -105 -86 0 -16 44 -8 85 16 37 22 107106 88 106 -5 0 -35 -16 -68 -36z"/><path d="M8640 890 c0 -16 5 -30 10 -30 6 0 10 14 10 30 0 17 -4 30 -10 30 -50 -10 -13 -10 -30z"/><path d="M8647 733 c-11 -10 -8 -53 3 -53 6 0 10 14 10 30 0 31 -2 35 -13 23z"/><path d="M4485 1535 c-5 -2 -30 -9 -54 -15 -24 -7 -40 -15 -35 -20 5 -5 54-17 109 -28 l100 -19 -52 -6 c-161 -20 -159 -21 87 -33 135 -6 256 -16 270-22 l25 -10 -25 -10 c-14 -5 -47 -13 -75 -18 -49 -8 -49 -8 45 -16 52 -4 145-11 205 -15 l110 -8 -110 -23 c-109 -24 -187 -48 -118 -38 18 3 103 8 190 12142 6 160 5 176 -10 15 -15 36 -17 171 -14 85 2 158 0 162 -5 13 -13 -12 -29-68 -42 l-53 -13 45 -1 c122 -3 332 -21 347 -30 16 -8 15 -10 -7 -15 -68 -15-167 -28 -405 -52 -143 -14 -276 -30 -295 -34 -46 -12 224 -3 480 16 239 17328 17 359 1 33 -17 37 -35 9 -46 -13 -5 -33 -13 -46 -17 -14 -6 30 -9 122 -9186 0 202 -13 75 -60 -74 -28 -68 -29 72 -15 132 14 135 15 148 52 11 30 1231 58 25 l48 -6 -30 16 c-16 9 -68 22 -114 29 -55 8 -91 19 -105 32 -32 29-54 38 -146 62 -47 12 -186 55 -310 95 -288 95 -451 135 -741 185 -290 50-394 75 -440 106 -29 20 -47 24 -105 23 -38 0 -73 -2 -79 -4z"/><path d="M4085 1480 c-4 -6 7 -10 27 -10 25 0 29 3 18 10 -19 13 -37 13 -45 0z"/><path d="M3523 1423 c15 -2 37 -2 50 0 12 2 0 4 -28 4 -27 0 -38 -2 -22 -4z"/><path d="M4030 1400 c-11 -7 4 -10 48 -10 40 0 61 4 57 10 -8 13 -85 13 -1050z"/><path d="M3777 1368 c21 -7 40 -7 60 0 25 9 21 10 -32 10 -55 0 -57 -1 -28-10z"/><path d="M3488 1343 c12 -2 32 -2 45 0 12 2 2 4 -23 4 -25 0 -35 -2 -22 -4z"/><path d="M4465 1320 c-4 -6 12 -10 42 -10 35 0 44 3 33 10 -20 13 -67 13 -750z"/><path d="M4220 1290 c0 -5 16 -10 35 -10 19 0 35 5 35 10 0 6 -16 10 -35 10-19 0 -35 -4 -35 -10z"/><path d="M4700 1240 c-11 -7 1 -10 40 -10 39 0 51 3 40 10 -8 5 -26 10 -40 10-14 0 -32 -5 -40 -10z"/><path d="M4460 1210 c8 -5 26 -10 40 -10 14 0 32 5 40 10 11 7 -1 10 -40 10-39 0 -51 -3 -40 -10z"/><path d="M4303 1183 c15 -2 37 -2 50 0 12 2 0 4 -28 4 -27 0 -38 -2 -22 -4z"/><path d="M4100 1160 c-11 -7 -4 -10 25 -10 29 0 36 3 25 10 -8 5 -19 10 -2510 -5 0 -17 -5 -25 -10z"/><path d="M5211 1160 c-113 -12 -163 -21 -157 -27 8 -8 348 18 366 28 18 10-104 10 -209 -1z"/><path d="M4727 1103 c18 -2 50 -2 70 0 21 2 7 4 -32 4 -38 0 -55 -2 -38 -4z"/><path d="M4978 1023 c18 -2 45 -2 60 0 15 2 0 4 -33 4 -33 0 -45 -2 -27 -4z"/><path d="M5551 979 c-41 -5 -77 -12 -80 -15 -9 -11 332 4 359 15 32 12 -17012 -279 0z"/><path d="M5335 953 c-80 -3 -235 -24 -239 -32 -3 -3 41 -3 97 1 169 11 237 20231 29 -3 5 -11 8 -17 7 -7 -1 -39 -3 -72 -5z"/><path d="M4820 890 c0 -5 23 -10 50 -10 28 0 50 5 50 10 0 6 -22 10 -50 10-27 0 -50 -4 -50 -10z"/><path d="M5870 890 c0 -5 20 -10 45 -10 25 0 45 5 45 10 0 6 -20 10 -45 10-25 0 -45 -4 -45 -10z"/><path d="M5495 860 c3 -5 17 -10 31 -10 13 0 24 5 24 10 0 6 -14 10 -31 10-17 0 -28 -4 -24 -10z"/><path d="M2740 746 c0 -20 5 -36 10 -36 6 0 10 13 10 29 0 17 -4 33 -10 36 -64 -10 -8 -10 -29z"/><path d="M1666 1793 c-106 -21 -79 -37 49 -31 105 6 128 14 100 35 -23 16 -4715 -149 -4z"/><path d="M1071 1708 c-103 -14 -110 -30 -11 -24 93 6 130 14 130 27 0 11 -3210 -119 -3z"/><path d="M805 1669 c-33 -5 -73 -13 -90 -18 l-30 -9 37 -1 c55 -1 188 20 18830 0 10 -21 10 -105 -2z"/><path d="M530 1610 c0 -5 14 -10 31 -10 17 0 28 4 24 10 -3 6 -17 10 -31 10-13 0 -24 -4 -24 -10z"/><path d="M310 1584 c-170 -26 -302 -71 -308 -106 -4 -23 53 -85 91 -97 18 -572 -12 122 -15 l90 -5 -50 15 c-84 24 -160 66 -160 89 0 24 45 41 224 90 11932 123 34 71 33 -30 0 -66 -2 -80 -4z"/><path d="M973 1530 c15 -5 39 -5 55 0 22 7 17 8 -28 8 -45 0 -50 -1 -27 -8z"/><path d="M195 1480 c-4 -6 8 -10 30 -10 22 0 34 4 30 10 -3 6 -17 10 -30 10-13 0 -27 -4 -30 -10z"/><path d="M1315 1480 c-4 -6 29 -10 92 -10 67 0 93 3 83 10 -20 13 -167 13-175 0z"/><path d="M1043 1453 c20 -2 54 -2 75 0 20 2 3 4 -38 4 -41 0 -58 -2 -37 -4z"/><path d="M368 1343 c12 -2 30 -2 40 0 9 3 -1 5 -23 4 -22 0 -30 -2 -17 -4z"/><path d="M490 1320 c-11 -7 -3 -10 30 -10 33 0 41 3 30 10 -8 5 -22 10 -30 10-8 0 -22 -5 -30 -10z"/><path d="M643 1308 c-41 -20 -25 -28 52 -28 78 0 93 9 50 28 -32 15 -72 14-102 0z"/><path d="M1066 1226 c229 -47 262 -58 281 -96 7 -14 23 -28 35 -32 37 -10 128-9 128 2 0 6 -9 10 -21 10 -11 0 -41 5 -66 12 l-46 11 29 24 c35 28 25 38 -5148 -69 9 -157 32 -191 50 -22 11 -63 15 -169 14 l-140 0 211 -43z"/><path d="M1650 1210 c0 -5 14 -10 31 -10 17 0 28 4 24 10 -3 6 -17 10 -31 10-13 0 -24 -4 -24 -10z"/><path d="M1860 1165 c0 -5 86 -45 96 -45 13 0 1 31 -15 40 -20 10 -81 14 -815z"/><path d="M1690 1130 c0 -5 18 -10 40 -10 22 0 40 5 40 10 0 6 -18 10 -40 10-22 0 -40 -4 -40 -10z"/><path d="M1626 1049 c6 -10 65 -39 79 -39 14 0 3 30 -14 40 -27 14 -74 13 -65-1z"/><path d="M1773 1002 c-8 -5 -1 -14 24 -27 20 -11 53 -43 74 -72 21 -28 48 -5459 -58 25 -8 51 11 43 31 -3 9 6 19 26 27 l32 14 -40 18 c-40 18 -83 54 -6556 5 0 0 4 -11 9 -25 11 -126 12 -142 2z"/><path d="M1819 790 c-21 -17 -22 -19 -6 -20 23 0 57 18 57 30 0 16 -26 11 -51-10z"/><path d="M2163 780 c16 -5 38 -5 50 0 17 7 10 9 -28 9 -43 -1 -46 -2 -22 -9z"/><path d="M1685 754 c-63 -23 -65 -34 -8 -34 51 0 82 18 68 40 -8 12 -10 12-60 -6z"/><path d="M1461 693 c-29 -25 -38 -75 -16 -96 16 -16 119 -51 240 -81 107 -27326 -49 492 -50 145 -1 187 4 171 19 -3 3 -118 12 -256 20 -276 17 -325 24-392 54 -25 11 -65 21 -90 22 -104 3 -121 26 -64 88 l36 41 -50 0 c-33 0 -57-6 -71 -17z"/><path d="M2410 570 c0 -6 27 -10 60 -10 33 0 60 4 60 10 0 6 -27 10 -60 10-33 0 -60 -4 -60 -10z"/><path d="M2480 490 c0 -5 15 -10 33 -10 24 0 28 3 17 10 -20 13 -50 13 -50 0z"/></g></svg>